<?xml version="1.0" encoding="UTF-8"?>
<svg id="Ebene_1" data-name="Ebene 1" xmlns="http://www.w3.org/2000/svg" xmlns:xlink="http://www.w3.org/1999/xlink" viewBox="0 0 52 52">
  <defs>
    <style>
      .cls-1 {
        fill: #fff;
      }

      .cls-2 {
        fill: none;
      }

      .cls-3 {
        clip-path: url(#clippath);
      }
    </style>
    <clipPath id="clippath">
      <path class="cls-2" d="M15.8,8.99h20.41c3.76,0,6.8,3.08,6.8,6.89v20.24c0,3.8-3.05,6.89-6.8,6.89H15.8c-3.76,0-6.8-3.08-6.8-6.89V15.88c0-3.8,3.05-6.89,6.8-6.89Z"/>
    </clipPath>
  </defs>
  <g class="cls-3">
    <path class="cls-1" d="M23.02,29.75h-5.1l-1.02,3.27c0,.09-.17.17-.26.17h-2.55q-.17,0-.17-.26l4.42-12.83c0-.17,0-.26.17-.43v-.86s0-.17.09-.17h3.57c.09,0,.17,0,.17.09l5.02,14.21c0,.17,0,.26-.17.26h-2.89c-.09,0-.17,0-.26-.17l-1.11-3.36h0l.09.09ZM18.69,26.99h3.49c0-.26-.17-.6-.34-1.03-.09-.34-.26-.78-.34-1.21-.17-.43-.26-.86-.43-1.29s-.26-.86-.34-1.21c-.09-.43-.17-.78-.34-1.12h0c-.09.6-.26,1.21-.43,1.81-.17.69-.43,1.38-.6,2.07s-.43,1.38-.6,1.98h-.09ZM35.44,28.54h-4.34c0,.43.17.86.43,1.21.26.34.6.69,1.02.86.51.26,1.19.34,1.79.34.51,0,.94,0,1.45-.17.43,0,.85-.17,1.19-.34,0,0,.09,0,.09.09v2.33l-.09.09c-.43.17-.85.34-1.36.43-.68.09-1.28.17-1.96.17-1.02,0-1.96-.17-2.64-.52-.68-.26-1.28-.78-1.7-1.29s-.77-1.12-.94-1.81c-.17-.69-.26-1.29-.26-2.07s.09-1.46.34-2.24c.26-.69.6-1.29,1.02-1.89.43-.52,1.02-1.03,1.7-1.29.68-.34,1.45-.43,2.3-.43.77,0,1.45.09,2.13.43.6.26,1.02.6,1.45,1.12.34.43.68,1.03.85,1.55.17.52.26,1.12.26,1.72v1.46c0,.09-.09.17-.17.17h-2.21l-.34.09ZM31.1,26.47h3.66c.09,0,.26,0,.34-.09v-.69c-.26-.78-.94-1.29-1.79-1.29-.77,0-1.45.34-1.79,1.03-.17.34-.26.69-.34,1.03h-.09Z"/>
  </g>
  <path class="cls-1" d="M36.2,43.01H15.8c-3.74,0-6.8-3.1-6.8-6.89V15.88c0-3.79,3.06-6.89,6.8-6.89h20.41c3.74,0,6.8,3.1,6.8,6.89v20.24c0,3.79-3.06,6.89-6.8,6.89ZM15.8,11.58c-2.38,0-4.25,1.89-4.25,4.31v20.24c0,2.41,1.87,4.31,4.25,4.31h20.41c2.38,0,4.25-1.89,4.25-4.31V15.88c0-2.41-1.87-4.31-4.25-4.31H15.8Z"/>
</svg>