<svg width="1194" height="336" viewBox="0 0 1194 336" fill="none" xmlns="http://www.w3.org/2000/svg">
<path d="M4.87988 153L58.6399 17.4478H85.9039L139.088 153H107.216L66.5119 40.4878H77.4559L36.1759 153H4.87988ZM35.4079 128.424V103.848H109.328V128.424H35.4079Z" fill="#1D1D1D"/>
<path d="M157.271 153V17.4478H187.415V153H157.271ZM180.503 153V126.504H247.511V153H180.503Z" fill="#1D1D1D"/>
<path d="M268.736 153V17.4478H298.88V153H268.736ZM291.776 153V126.888H366.08V153H291.776ZM291.776 96.3598V71.2078H359.36V96.3598H291.776ZM291.776 43.3678V17.4478H365.12V43.3678H291.776Z" fill="#1D1D1D"/>
<path d="M480.557 153L442.733 92.5198H439.085L386.861 17.4478H422.765L441.389 45.8638L460.013 74.2798H463.661L515.885 153H480.557ZM384.365 153L434.477 80.4238L457.709 93.4798L418.733 153H384.365ZM464.813 89.0638L441.581 76.0078L479.213 17.4478H513.581L464.813 89.0638Z" fill="#1D1D1D"/>
<path d="M531.582 153L585.342 17.4478H612.606L665.79 153H633.918L593.214 40.4878H604.158L562.878 153H531.582ZM562.11 128.424V103.848H636.03V128.424H562.11Z" fill="#1D1D1D"/>
<path d="M685.893 153V17.4478H707.013L716.037 44.5198V153H685.893ZM779.397 153L699.525 50.6637L707.013 17.4478L786.885 119.784L779.397 153ZM779.397 153L771.333 125.928V17.4478H801.477V153H779.397Z" fill="#1D1D1D"/>
<path d="M842.235 153V126.504H875.835C884.027 126.504 891.195 124.904 897.339 121.704C903.483 118.376 908.219 113.576 911.547 107.304C914.875 101.032 916.539 93.6078 916.539 85.0318C916.539 76.4558 914.811 69.0958 911.355 62.9518C908.027 56.8078 903.291 52.0718 897.147 48.7438C891.131 45.4158 884.027 43.7518 875.835 43.7518H841.275V17.4478H876.219C886.459 17.4478 895.867 19.1118 904.443 22.4398C913.147 25.6398 920.699 30.3118 927.099 36.4557C933.627 42.4718 938.619 49.6398 942.075 57.9598C945.659 66.1518 947.451 75.2398 947.451 85.2238C947.451 95.0798 945.659 104.168 942.075 112.488C938.619 120.808 933.691 127.976 927.291 133.992C920.891 140.008 913.339 144.68 904.635 148.008C896.059 151.336 886.715 153 876.603 153H842.235ZM821.883 153V17.4478H852.027V153H821.883Z" fill="#1D1D1D"/>
<path d="M962.793 153V17.4478H992.937V153H962.793ZM985.833 153V126.888H1060.14V153H985.833ZM985.833 96.3598V71.2078H1053.42V96.3598H985.833ZM985.833 43.3678V17.4478H1059.18V43.3678H985.833Z" fill="#1D1D1D"/>
<path d="M1102.04 97.1278V74.8558H1130.65C1136.66 74.8558 1141.27 73.3198 1144.47 70.2478C1147.8 67.1758 1149.46 63.0158 1149.46 57.7678C1149.46 52.9038 1147.86 48.8718 1144.66 45.6718C1141.46 42.4718 1136.85 40.8717 1130.84 40.8717H1102.04V17.4478H1134.29C1143.25 17.4478 1151.13 19.1758 1157.91 22.6318C1164.69 25.9598 1170.01 30.6318 1173.85 36.6478C1177.69 42.6638 1179.61 49.5758 1179.61 57.3838C1179.61 65.3198 1177.69 72.2958 1173.85 78.3118C1170.01 84.1998 1164.63 88.8078 1157.72 92.1358C1150.81 95.4638 1142.68 97.1278 1133.33 97.1278H1102.04ZM1079 153V17.4478H1109.14V153H1079ZM1152.73 153L1110.49 94.6318L1138.13 87.1438L1188.44 153H1152.73Z" fill="#1D1D1D"/>
<path d="M15.0559 318V182.448H45.1999V318H15.0559ZM98.9599 318V182.448H129.296V318H98.9599ZM33.1039 261.36V235.248H108.944V261.36H33.1039Z" fill="#1D1D1D"/>
<path d="M218.09 320.304C207.85 320.304 198.378 318.512 189.674 314.928C181.098 311.344 173.546 306.352 167.018 299.952C160.49 293.552 155.434 286.128 151.85 277.68C148.266 269.104 146.474 259.888 146.474 250.032C146.474 240.048 148.266 230.832 151.85 222.384C155.434 213.936 160.426 206.576 166.826 200.304C173.226 193.904 180.714 188.976 189.29 185.52C197.994 181.936 207.466 180.144 217.706 180.144C227.818 180.144 237.162 181.936 245.738 185.52C254.442 188.976 261.994 193.904 268.394 200.304C274.922 206.576 279.978 214 283.562 222.576C287.146 231.024 288.938 240.24 288.938 250.224C288.938 260.08 287.146 269.296 283.562 277.872C279.978 286.32 274.986 293.744 268.586 300.144C262.186 306.416 254.634 311.344 245.93 314.928C237.354 318.512 228.074 320.304 218.09 320.304ZM217.706 292.848C225.77 292.848 232.81 291.056 238.826 287.472C244.97 283.888 249.706 278.896 253.034 272.496C256.362 265.968 258.026 258.48 258.026 250.032C258.026 243.632 257.066 237.872 255.146 232.752C253.226 227.504 250.474 223.024 246.89 219.312C243.306 215.472 239.018 212.592 234.026 210.672C229.162 208.624 223.722 207.6 217.706 207.6C209.642 207.6 202.538 209.392 196.394 212.976C190.378 216.432 185.706 221.36 182.378 227.76C179.05 234.032 177.386 241.456 177.386 250.032C177.386 256.432 178.346 262.256 180.266 267.504C182.186 272.752 184.874 277.296 188.33 281.136C191.914 284.848 196.202 287.728 201.194 289.776C206.186 291.824 211.69 292.848 217.706 292.848Z" fill="#1D1D1D"/>
<path d="M375.804 320.112C365.948 320.112 356.668 318.32 347.964 314.736C339.388 311.152 331.9 306.224 325.5 299.952C319.1 293.552 314.044 286.128 310.332 277.68C306.748 269.104 304.956 259.888 304.956 250.032C304.956 240.176 306.812 231.024 310.524 222.576C314.236 214.128 319.356 206.768 325.884 200.496C332.54 194.096 340.284 189.168 349.116 185.712C357.948 182.128 367.42 180.336 377.532 180.336C389.18 180.336 399.74 182.448 409.212 186.672C418.812 190.896 426.748 196.72 433.02 204.144L412.476 224.688C408.124 219.056 403.004 214.832 397.116 212.016C391.228 209.2 384.572 207.792 377.148 207.792C369.212 207.792 362.108 209.584 355.836 213.168C349.564 216.624 344.636 221.552 341.052 227.952C337.596 234.224 335.868 241.584 335.868 250.032C335.868 258.48 337.596 265.904 341.052 272.304C344.508 278.704 349.244 283.696 355.26 287.28C361.276 290.864 368.188 292.656 375.996 292.656C383.932 292.656 390.652 291.184 396.156 288.24C401.788 285.168 406.076 280.816 409.02 275.184C412.092 269.424 413.628 262.448 413.628 254.256L433.596 267.696L373.116 266.736V241.2H444.348V245.616C444.348 261.872 441.404 275.568 435.516 286.704C429.756 297.712 421.692 306.032 411.324 311.664C401.084 317.296 389.244 320.112 375.804 320.112Z" fill="#1D1D1D"/>
<path d="M462.618 318V182.448H492.762V318H462.618ZM485.658 318V291.888H559.962V318H485.658ZM485.658 261.36V236.208H553.242V261.36H485.658ZM485.658 208.368V182.448H559.002V208.368H485.658Z" fill="#1D1D1D"/>
<path d="M1192 335.5H2C1.2 335.5 0.5 334.8 0.5 334C0.5 333.2 1.2 332.5 2 332.5H1192C1192.8 332.5 1193.5 333.2 1193.5 334C1193.5 334.8 1192.8 335.5 1192 335.5ZM1192 169.5H555C554.2 169.5 553.5 168.8 553.5 168C553.5 167.2 554.2 166.5 555 166.5H1192C1192.8 166.5 1193.5 167.2 1193.5 168C1193.5 168.8 1192.8 169.5 1192 169.5ZM4 3.5C3.2 3.5 2.5 2.8 2.5 2C2.5 1.2 3.2 0.5 4 0.5H1192C1192.8 0.5 1193.5 1.2 1193.5 2C1193.5 2.8 1192.8 3.5 1192 3.5H4Z" fill="#D9D9D9"/>
</svg>
