<?xml version="1.0" encoding="UTF-8"?>
<svg id="Ebene_1" data-name="Ebene 1" xmlns="http://www.w3.org/2000/svg" viewBox="0 0 52 52">
  <defs>
    <style>
      .cls-1 {
        fill: #fff;
      }
    </style>
  </defs>
  <path class="cls-1" d="M31.02,21.86h-.41c-4.23,0-7.71,2.99-7.71,6.63v.33c.17,3.4,3.4,6.05,7.3,6.22h.41c4.15,0,7.46-2.74,7.71-6.22v-.33c0-3.57-3.23-6.47-7.3-6.63ZM35.33,28.16c-.08,2.07-2.16,3.73-4.64,3.73h-.25c-2.4-.08-4.31-1.74-4.4-3.73v-.17c0-2.16,2.07-3.98,4.64-3.98h.25c2.49.08,4.48,1.82,4.48,3.98v.17h-.08ZM31.02,21.86h-.41c-4.23,0-7.71,2.99-7.71,6.63v.33c.17,3.4,3.4,6.05,7.3,6.22h.41c4.15,0,7.46-2.74,7.71-6.22v-.33c0-3.57-3.23-6.47-7.3-6.63ZM35.33,28.16c-.08,2.07-2.16,3.73-4.64,3.73h-.25c-2.4-.08-4.31-1.74-4.4-3.73v-.17c0-2.16,2.07-3.98,4.64-3.98h.25c2.49.08,4.48,1.82,4.48,3.98v.17h-.08Z"/>
  <path class="cls-1" d="M40.55,18.96c-.08,0-.17-.17-.33-.25l-11.44-8.87h-.17c-.83-.66-1.74-.91-2.65-.83h-.17c-.91.17-1.91.58-2.57,1.41l-.17.17c-1.08,1.49-1.08,3.4,0,4.81h-9.04c-2.4,0-4.31,1.91-4.4,4.23v.41c.08,2.07,1.66,3.81,3.65,4.15l-4.89,3.98c-1.16,1-1.82,2.4-1.82,3.81s.33,2.07,1,2.99c1,1.24,2.32,1.82,3.73,1.82s2.07-.33,2.99-1.08l2.32-1.82c2.07,5.39,7.63,9.12,14.01,9.12s14.84-5.97,14.84-13.77-1.91-7.71-4.89-10.2v-.08ZM30.6,40.52h-.33c-6.63-.17-11.94-5.06-12.02-11.2l-5.56,4.4c-.41.33-.91.5-1.41.5h-.08c-.66,0-1.24-.33-1.66-.91-.83-1-.66-2.49.33-3.32l10.37-8.29h-6.39c-1-.08-1.74-.91-1.74-1.91s.75-1.82,1.74-1.91h16.17l-4.73-3.65c-.66-.5-.83-1.49-.25-2.16.25-.33.66-.58,1-.58.41,0,.83,0,1.16.33l11.53,8.87h0c2.57,2.07,4.15,5.06,4.15,8.46v.33c-.17,6.14-5.64,11.03-12.36,11.03h.08Z"/>
</svg>