<svg version="1.2" xmlns="http://www.w3.org/2000/svg" viewBox="0 0 790 790" width="100" height="100">
	<title>C#</title>
	<style>
		.s0 { fill: #c6c6c7 } 
	</style>
	<path fill-rule="evenodd" class="s0" d="m435.4 59.3l270.5 156.2v359l-310.9 179.5-310.9-179.5v-359l273.7-158 37.2-21.5zm155.3 446.1l-87.9-50.1c-20.9 36.7-60.3 61.5-105.5 61.5-67 0-121.4-54.3-121.4-121.3 0-67 54.4-121.3 121.4-121.3 45.5 0 84.3 24.6 105.1 61.7l88.1-50.9c-38.6-66.3-111-112-193.2-112-122.9 0-222.5 99.6-222.5 222.5 0 122.9 99.6 222.5 222.5 222.5 82.8 0 155.2-45.4 193.4-112.6z"/>
</svg>