<?xml version="1.0" encoding="utf-8"?>
<svg version="1.1" id="Layer_1" xmlns="http://www.w3.org/2000/svg"
     xmlns:xlink="http://www.w3.org/1999/xlink" x="0px" y="0px"
     width="100" height="100" viewBox="0 0 306 344.35" xml:space="preserve">

  <defs>
    <mask id="cutout">
      <!-- Everything visible by default -->
      <rect width="100%" height="100%" fill="#c6c6c7"/>
      
      <!-- Knock out C-shape -->
      <path fill="black" d="M153,274.175c-56.243,0-102-45.757-102-102s45.757-102,102-102c36.292,0,70.139,19.53,88.331,50.968
        l-44.143,25.544c-9.105-15.736-26.038-25.512-44.188-25.512c-28.122,0-51,22.878-51,51c0,28.121,22.878,51,51,51
        c18.152,0,35.085-9.776,44.191-25.515l44.143,25.543C223.142,254.644,189.294,274.175,153,274.175z"/>
      
      <!-- Knock out C# hash symbol from original coordinates, adjusted to this canvas -->
        <g transform="scale(1.25) translate(70,0)">
        <path fill="black" d="M131.892326,111.294008 L131.892326,124.767692 L145.36601,124.767692 L145.36601,111.294008 
            L152.102852,111.294008 L152.102852,124.767692 L165.576537,124.767692 L165.576537,131.504534 L152.102852,131.504534 
            L152.102852,144.978218 L165.576537,144.978218 L165.576537,151.71506 L152.102852,151.71506 L152.102852,165.188744 
            L145.36601,165.188744 L145.36601,151.71506 L131.892326,151.71506 L131.892326,165.188744 L125.155484,165.188744 
            L125.155484,151.71506 L111.6818,151.71506 L111.6818,144.978218 L125.155484,144.978218 L125.155484,131.504534 
            L111.6818,131.504534 L111.6818,124.767692 L125.155484,124.767692 L125.155484,111.294008 Z 
            M145.36601,131.504534 L131.892326,131.504534 L131.892326,144.978218 L145.36601,144.978218 L145.36601,131.504534 Z"/>
        </g>
    </mask>
  </defs>

  <!-- Background shape with mask applied -->
  <path mask="url(#cutout)" fill="#FFFFFF" d="M166.25,3.156c-7.287-4.208-19.213-4.208-26.5,0L13.25,76.19C5.962,80.397,0,90.725,0,99.14v146.069
	c0,4.208,1.491,8.894,3.893,13.053c2.401,4.159,5.714,7.793,9.357,9.896l126.5,73.034c7.287,4.208,19.213,4.208,26.5,0
	l126.5-73.034c3.644-2.104,6.956-5.737,9.357-9.897c2.401-4.159,3.893-8.845,3.893-13.053V99.14c0-4.208-1.49-8.893-3.892-13.052
	c-2.402-4.16-5.715-7.793-9.358-9.897L166.25,3.156z"/>
</svg>
