<svg version="1.2" xmlns="http://www.w3.org/2000/svg" viewBox="0 0 835 611" width="100" height="73">
	<title>Discord</title>
	<style>
		.s0 { fill: #000000 } 
	</style>
	<path class="s0" d="m694.3 52.6c90.3 132.9 134.9 282.7 118.3 455.2-0.1 0.7-0.5 1.4-1.1 1.8-68.4 50.3-134.7 80.8-200.1 101q-0.3 0.1-0.7 0.1-0.4 0-0.8-0.1-0.4-0.2-0.7-0.4-0.3-0.2-0.6-0.6c-15.1-21-28.8-43.1-40.8-66.4-0.7-1.3-0.1-3 1.4-3.5 21.7-8.2 42.5-18.1 62.4-29.7 1.6-1 1.7-3.2 0.2-4.3-4.2-3.1-8.4-6.4-12.4-9.7-0.8-0.6-1.8-0.8-2.6-0.3-129.4 59.7-271.2 59.7-402.1 0-0.8-0.4-1.8-0.3-2.6 0.3-4 3.3-8.2 6.6-12.4 9.7-1.4 1.1-1.3 3.3 0.3 4.3 19.9 11.4 40.6 21.5 62.4 29.7 1.4 0.5 2.1 2.2 1.4 3.5-11.8 23.3-25.5 45.5-40.9 66.5-0.6 0.8-1.7 1.2-2.8 0.9-65-20.2-131.3-50.7-199.7-101-0.6-0.4-1-1.1-1.1-1.8-13.9-149.2 14.5-300.3 118.2-455.2 0.2-0.4 0.6-0.7 1.1-0.9 51-23.4 105.7-40.7 162.8-50.5 1-0.2 2.1 0.3 2.6 1.2 7.1 12.5 15.2 28.6 20.6 41.7 60.2-9.2 121.4-9.2 182.9 0 5.5-12.9 13.3-29.2 20.3-41.7q0.2-0.3 0.5-0.6 0.2-0.3 0.6-0.4 0.3-0.2 0.7-0.2 0.4-0.1 0.8 0c57.2 9.9 111.8 27.1 162.8 50.5 0.5 0.2 0.9 0.5 1.1 0.9zm-339.1 283.7c0.7-44.1-31.5-80.6-71.9-80.6-40 0-71.9 36.2-71.9 80.6 0 44.4 32.5 80.6 71.9 80.6 40.1 0 71.9-36.2 71.9-80.6zm265.8 0c0.7-44.1-31.5-80.6-71.8-80.6-40.1 0-71.9 36.2-71.9 80.6 0 44.4 32.4 80.6 71.9 80.6 40.3 0 71.8-36.2 71.8-80.6z"/>
</svg>