<svg version="1.2" xmlns="http://www.w3.org/2000/svg" viewBox="0 0 32 32" width="100" height="100">
	<title>Docker</title>
	<style>
		.s0 { fill: #c6c6c7 } 
	</style>
	<path class="s0" d="m26.2 13.9c-0.1-1.4-1.1-2.3-2.2-2.9-0.9 1.2-1.4 3-0.5 4.7-0.6 0.3-1.4 0.3-1.6 0.4-2 0-12.9 0-16.9 0-0.4 0-0.8 0.2-0.9 0.6-0.9 4.2 0.6 10.3 8 10.3 7.8 0 12.7-5.2 13.6-10 1.4 0.2 3.4-0.7 3.9-2.5-1.1-0.7-1.9-0.8-3.4-0.6z"/>
	<path fill-rule="evenodd" class="s0" d="m11 6.5c0-0.3 0.2-0.5 0.5-0.5h3c0.3 0 0.5 0.2 0.5 0.5v3c0 0.3-0.2 0.5-0.5 0.5h-3c-0.3 0-0.5-0.2-0.5-0.5zm0 5c0-0.3 0.2-0.5 0.5-0.5h3c0.3 0 0.5 0.2 0.5 0.5v3c0 0.3-0.2 0.5-0.5 0.5h-3c-0.3 0-0.5-0.2-0.5-0.5zm-1.5-0.5c0.3 0 0.5 0.2 0.5 0.5v3c0 0.3-0.2 0.5-0.5 0.5h-3c-0.3 0-0.5-0.2-0.5-0.5v-3c0-0.3 0.2-0.5 0.5-0.5zm6.5-4.5c0-0.3 0.2-0.5 0.5-0.5h3c0.3 0 0.5 0.2 0.5 0.5v3c0 0.3-0.2 0.5-0.5 0.5h-3c-0.3 0-0.5-0.2-0.5-0.5zm3.5 4.5c0.3 0 0.5 0.2 0.5 0.5v3c0 0.3-0.2 0.5-0.5 0.5h-3c-0.3 0-0.5-0.2-0.5-0.5v-3c0-0.3 0.2-0.5 0.5-0.5z"/>
</svg>