<?xml version="1.0" encoding="UTF-8"?>
<svg id="Ebene_1" data-name="Ebene 1" xmlns="http://www.w3.org/2000/svg" viewBox="0 0 52 52">
  <defs>
    <style>
      .cls-1 {
        fill: #fff;
      }
    </style>
  </defs>
  <path class="cls-1" d="M34.34,21.03c2.02-1.09,3.45-3.12,3.45-5.64,0-3.54-2.95-6.4-6.48-6.4h-10.69c-3.54,0-6.4,2.86-6.4,6.4s1.18,4.21,2.95,5.3c-1.77,1.09-2.95,3.03-2.95,5.3s1.18,4.21,2.95,5.3c-1.77,1.18-2.95,3.03-2.95,5.3,0,3.54,2.95,6.4,6.48,6.4s6.48-2.86,6.48-6.4v-6.31c1.09,1.26,2.69,2.1,4.55,2.1,3.37,0,6.06-2.69,6.06-6.06s-1.43-4.38-3.45-5.39v.08ZM24.82,36.69c0,2.27-1.85,4.21-4.21,4.21s-4.21-1.85-4.21-4.21,1.85-4.21,4.21-4.21h4.21v4.21ZM24.82,30.21h-4.21c-2.36,0-4.21-1.85-4.21-4.21s1.85-4.21,4.21-4.21h4.21v8.42ZM24.82,19.6h-4.21c-2.36,0-4.21-1.85-4.21-4.21s1.85-4.21,4.21-4.21h4.21v8.42ZM27.09,11.27h4.21c2.36,0,4.21,1.85,4.21,4.21s-1.85,4.21-4.21,4.21h-4.21s0-8.42,0-8.42ZM27.09,21.87h.59c-.17.17-.42.34-.59.59v-.59ZM31.64,30.21c-2.1,0-3.87-1.68-3.87-3.79s1.68-3.79,3.87-3.79,3.87,1.68,3.87,3.79-1.68,3.79-3.87,3.79Z"/>
</svg>