<svg width="1185" height="337" viewBox="0 0 1185 337" fill="none" xmlns="http://www.w3.org/2000/svg">
<path d="M0.879883 152.5L54.6399 16.9478H81.9039L135.088 152.5H103.216L62.5119 39.9878H73.4559L32.1759 152.5H0.879883ZM31.4079 127.924V103.348H105.328V127.924H31.4079Z" fill="#1D1D1D"/>
<path d="M153.271 152.5V16.9478H183.415V152.5H153.271ZM176.503 152.5V126.004H243.511V152.5H176.503Z" fill="#1D1D1D"/>
<path d="M264.736 152.5V16.9478H294.88V152.5H264.736ZM287.776 152.5V126.388H362.08V152.5H287.776ZM287.776 95.8598V70.7078H355.36V95.8598H287.776ZM287.776 42.8678V16.9478H361.12V42.8678H287.776Z" fill="#1D1D1D"/>
<path d="M476.557 152.5L438.733 92.0198H435.085L382.861 16.9478H418.765L456.013 73.7798H459.661L511.885 152.5H476.557ZM380.365 152.5L430.477 79.9238L453.709 92.9798L414.733 152.5H380.365ZM460.813 88.5638L437.581 75.5078L475.213 16.9478H509.581L460.813 88.5638Z" fill="#1D1D1D"/>
<path d="M527.582 152.5L581.342 16.9478H608.606L661.79 152.5H629.918L589.214 39.9878H600.158L558.878 152.5H527.582ZM558.11 127.924V103.348H632.03V127.924H558.11Z" fill="#1D1D1D"/>
<path d="M681.893 152.5V16.9478H703.013L712.037 44.0198V152.5H681.893ZM775.397 152.5L695.525 50.1637L703.013 16.9478L782.885 119.284L775.397 152.5ZM775.397 152.5L767.333 125.428V16.9478H797.477V152.5H775.397Z" fill="#1D1D1D"/>
<path d="M838.235 152.5V126.004H871.835C880.027 126.004 887.195 124.404 893.339 121.204C899.483 117.876 904.219 113.076 907.547 106.804C910.875 100.532 912.539 93.1078 912.539 84.5318C912.539 75.9558 910.811 68.5958 907.355 62.4518C904.027 56.3078 899.291 51.5718 893.147 48.2438C887.131 44.9158 880.027 43.2518 871.835 43.2518H837.275V16.9478H872.219C882.459 16.9478 891.867 18.6118 900.443 21.9398C909.147 25.1398 916.699 29.8118 923.099 35.9557C929.627 41.9718 934.619 49.1398 938.075 57.4598C941.659 65.6518 943.451 74.7398 943.451 84.7238C943.451 94.5798 941.659 103.668 938.075 111.988C934.619 120.308 929.691 127.476 923.291 133.492C916.891 139.508 909.339 144.18 900.635 147.508C892.059 150.836 882.715 152.5 872.603 152.5H838.235ZM817.883 152.5V16.9478H848.027V152.5H817.883Z" fill="#1D1D1D"/>
<path d="M958.793 152.5V16.9478H988.937V152.5H958.793ZM981.833 152.5V126.388H1056.14V152.5H981.833ZM981.833 95.8598V70.7078H1049.42V95.8598H981.833ZM981.833 42.8678V16.9478H1055.18V42.8678H981.833Z" fill="#1D1D1D"/>
<path d="M1098.04 96.6278V74.3558H1126.65C1132.66 74.3558 1137.27 72.8198 1140.47 69.7478C1143.8 66.6758 1145.46 62.5158 1145.46 57.2678C1145.46 52.4038 1143.86 48.3718 1140.66 45.1718C1137.46 41.9718 1132.85 40.3717 1126.84 40.3717H1098.04V16.9478H1130.29C1139.25 16.9478 1147.13 18.6758 1153.91 22.1318C1160.69 25.4598 1166.01 30.1318 1169.85 36.1478C1173.69 42.1638 1175.61 49.0758 1175.61 56.8838C1175.61 64.8198 1173.69 71.7958 1169.85 77.8118C1166.01 83.6998 1160.63 88.3078 1153.72 91.6358C1146.81 94.9638 1138.68 96.6278 1129.33 96.6278H1098.04ZM1075 152.5V16.9478H1105.14V152.5H1075ZM1148.73 152.5L1106.49 94.1318L1134.13 86.6438L1184.44 152.5H1148.73Z" fill="#1D1D1D"/>
<path d="M11.0559 317.5V181.948H41.1999V317.5H11.0559ZM94.9599 317.5V181.948H125.296V317.5H94.9599ZM29.1039 260.86V234.748H104.944V260.86H29.1039Z" fill="#1D1D1D"/>
<path d="M214.09 319.804C203.85 319.804 194.378 318.012 185.674 314.428C177.098 310.844 169.546 305.852 163.018 299.452C156.49 293.052 151.434 285.628 147.85 277.18C144.266 268.604 142.474 259.388 142.474 249.532C142.474 239.548 144.266 230.332 147.85 221.884C151.434 213.436 156.426 206.076 162.826 199.804C169.226 193.404 176.714 188.476 185.29 185.02C193.994 181.436 203.466 179.644 213.706 179.644C223.818 179.644 233.162 181.436 241.738 185.02C250.442 188.476 257.994 193.404 264.394 199.804C270.922 206.076 275.978 213.5 279.562 222.076C283.146 230.524 284.938 239.74 284.938 249.724C284.938 259.58 283.146 268.796 279.562 277.372C275.978 285.82 270.986 293.244 264.586 299.644C258.186 305.916 250.634 310.844 241.93 314.428C233.354 318.012 224.074 319.804 214.09 319.804ZM213.706 292.348C221.77 292.348 228.81 290.556 234.826 286.972C240.97 283.388 245.706 278.396 249.034 271.996C252.362 265.468 254.026 257.98 254.026 249.532C254.026 243.132 253.066 237.372 251.146 232.252C249.226 227.004 246.474 222.524 242.89 218.812C239.306 214.972 235.018 212.092 230.026 210.172C225.162 208.124 219.722 207.1 213.706 207.1C205.642 207.1 198.538 208.892 192.394 212.476C186.378 215.932 181.706 220.86 178.378 227.26C175.05 233.532 173.386 240.956 173.386 249.532C173.386 255.932 174.346 261.756 176.266 267.004C178.186 272.252 180.874 276.796 184.33 280.636C187.914 284.348 192.202 287.228 197.194 289.276C202.186 291.324 207.69 292.348 213.706 292.348Z" fill="#1D1D1D"/>
<path d="M371.804 319.612C361.948 319.612 352.668 317.82 343.964 314.236C335.388 310.652 327.9 305.724 321.5 299.452C315.1 293.052 310.044 285.628 306.332 277.18C302.748 268.604 300.956 259.388 300.956 249.532C300.956 239.676 302.812 230.524 306.524 222.076C310.236 213.628 315.356 206.268 321.884 199.996C328.54 193.596 336.284 188.668 345.116 185.212C353.948 181.628 363.42 179.836 373.532 179.836C385.18 179.836 395.74 181.948 405.212 186.172C414.812 190.396 422.748 196.22 429.02 203.644L408.476 224.188C404.124 218.556 399.004 214.332 393.116 211.516C387.228 208.7 380.572 207.292 373.148 207.292C365.212 207.292 358.108 209.084 351.836 212.668C345.564 216.124 340.636 221.052 337.052 227.452C333.596 233.724 331.868 241.084 331.868 249.532C331.868 257.98 333.596 265.404 337.052 271.804C340.508 278.204 345.244 283.196 351.26 286.78C357.276 290.364 364.188 292.156 371.996 292.156C379.932 292.156 386.652 290.684 392.156 287.74C397.788 284.668 402.076 280.316 405.02 274.684C408.092 268.924 409.628 261.948 409.628 253.756L429.596 267.196L369.116 266.236V240.7H440.348V245.116C440.348 261.372 437.404 275.068 431.516 286.204C425.756 297.212 417.692 305.532 407.324 311.164C397.084 316.796 385.244 319.612 371.804 319.612Z" fill="#1D1D1D"/>
<path d="M458.618 317.5V181.948H488.762V317.5H458.618ZM481.658 317.5V291.388H555.962V317.5H481.658ZM481.658 260.86V235.708H549.242V260.86H481.658ZM481.658 207.868V181.948H555.002V207.868H481.658Z" fill="#1D1D1D"/>
<path d="M1183 335L2.5 336.5C1.7 336.5 1 335.8 1 335C1 334.2 1.7 333.5 2.5 333.5L1183 332C1183.8 332 1184.5 332.7 1184.5 333.5C1184.5 334.3 1183.8 335 1183 335ZM1183 169H556.5C555.7 169 555 168.3 555 167.5C555 166.7 555.7 166 556.5 166H1183C1183.8 166 1184.5 166.7 1184.5 167.5C1184.5 168.3 1183.8 169 1183 169ZM3 6C2.2 6 1.5 5.3 1.5 4.5C1.5 3.7 2.2 3 3 3L1183 0C1183.8 0 1184.5 0.7 1184.5 1.5C1184.5 2.3 1183.8 3 1183 3L3 6Z" fill="#D9D9D9"/>
<path d="M641 218.96V216.032H653.864V218.96H641Z" fill="black"/>
<path d="M662.828 225.464C658.892 225.464 656.06 222.896 656.06 218.384C656.06 214.064 658.652 211.256 662.684 211.256C667.004 211.256 669.452 214.424 669.068 219.248H659.444C659.492 221.72 660.884 222.944 662.9 222.944C664.58 222.944 665.708 222.104 666.14 220.832L668.996 221.528C668.3 223.904 665.996 225.464 662.828 225.464ZM659.444 217.088H665.708C665.684 215.048 664.46 213.728 662.588 213.728C660.788 213.728 659.516 214.952 659.444 217.088Z" fill="black"/>
<path d="M671.525 209.624V206.24H674.813V209.624H671.525ZM671.525 225.224V211.496H674.813V225.224H671.525Z" fill="black"/>
<path d="M678.017 225.224V211.496H681.065L681.209 213.44C682.289 211.928 683.633 211.256 685.481 211.256C688.265 211.256 690.137 212.864 690.137 216.008V225.224H686.825V216.44C686.825 214.976 685.961 214.088 684.353 214.088C682.721 214.088 681.401 215.24 681.329 217.088V225.224H678.017Z" fill="black"/>
<path d="M698.838 225.224V207.728H705.99C711.246 207.728 714.294 211.136 714.294 216.488C714.294 221.768 711.294 225.224 705.99 225.224H698.838ZM702.198 222.392H705.894C708.966 222.392 710.838 220.256 710.838 216.464C710.838 212.648 708.942 210.56 705.894 210.56H702.198V222.392Z" fill="black"/>
<path d="M722.969 225.464C719.033 225.464 716.201 222.896 716.201 218.384C716.201 214.064 718.793 211.256 722.825 211.256C727.145 211.256 729.593 214.424 729.209 219.248H719.585C719.633 221.72 721.025 222.944 723.041 222.944C724.721 222.944 725.849 222.104 726.281 220.832L729.137 221.528C728.441 223.904 726.137 225.464 722.969 225.464ZM719.585 217.088H725.849C725.825 215.048 724.601 213.728 722.729 213.728C720.929 213.728 719.657 214.952 719.585 217.088Z" fill="black"/>
<path d="M736.801 225.464C733.225 225.464 731.113 223.736 730.825 221.072L733.993 220.688C734.017 222.152 735.049 223.136 736.849 223.136C738.265 223.136 739.225 222.584 739.225 221.456C739.225 219.968 737.737 219.848 735.457 219.344C732.937 218.768 731.353 217.688 731.353 215.408C731.353 212.936 733.537 211.256 736.801 211.256C740.137 211.256 742.129 212.816 742.417 215.432L739.345 215.84C739.297 214.4 738.385 213.56 736.753 213.56C735.409 213.56 734.641 214.208 734.641 215.12C734.641 216.344 735.793 216.656 737.857 217.088C740.305 217.616 742.561 218.432 742.609 221.288C742.657 224.12 740.113 225.464 736.801 225.464Z" fill="black"/>
<path d="M745.001 209.624V206.24H748.289V209.624H745.001ZM745.001 225.224V211.496H748.289V225.224H745.001Z" fill="black"/>
<path d="M756.868 229.472C753.364 229.472 751.348 228.032 750.916 225.824L754.084 225.368C754.348 226.496 755.428 227.024 757.012 227.024C759.052 227.024 760.3 226.184 760.3 224.384V221.936C759.508 223.304 758.092 224.048 756.34 224.048C752.908 224.048 750.724 221.408 750.724 217.616C750.724 213.848 752.86 211.28 756.22 211.28C758.068 211.28 759.652 212.12 760.372 213.536L760.516 211.496H763.588V224.288C763.588 227.456 761.38 229.472 756.868 229.472ZM757.156 221.528C759.076 221.528 760.3 220.088 760.3 218V217.256C760.3 215.168 759.052 213.8 757.132 213.8C755.164 213.8 754.084 215.264 754.084 217.64C754.084 219.992 755.14 221.528 757.156 221.528Z" fill="black"/>
<path d="M766.704 225.224V211.496H769.752L769.896 213.44C770.976 211.928 772.32 211.256 774.168 211.256C776.952 211.256 778.824 212.864 778.824 216.008V225.224H775.512V216.44C775.512 214.976 774.648 214.088 773.04 214.088C771.408 214.088 770.088 215.24 770.016 217.088V225.224H766.704Z" fill="black"/>
<path d="M787.075 225.464C783.499 225.464 781.387 223.736 781.099 221.072L784.267 220.688C784.291 222.152 785.323 223.136 787.123 223.136C788.539 223.136 789.499 222.584 789.499 221.456C789.499 219.968 788.011 219.848 785.731 219.344C783.211 218.768 781.627 217.688 781.627 215.408C781.627 212.936 783.811 211.256 787.075 211.256C790.411 211.256 792.403 212.816 792.691 215.432L789.619 215.84C789.571 214.4 788.659 213.56 787.027 213.56C785.683 213.56 784.915 214.208 784.915 215.12C784.915 216.344 786.067 216.656 788.131 217.088C790.579 217.616 792.835 218.432 792.883 221.288C792.931 224.12 790.387 225.464 787.075 225.464Z" fill="black"/>
<path d="M799.281 225.392C796.977 225.392 795.849 224.48 795.849 222.56V213.824L794.073 213.872V211.496L795.849 211.544V207.92H799.113V211.544L801.369 211.496V213.872L799.113 213.824V221.48C799.113 222.512 799.353 222.752 800.265 222.752C800.721 222.752 801.081 222.68 801.345 222.608V225.152C800.649 225.32 799.881 225.392 799.281 225.392Z" fill="black"/>
<path d="M815.569 211.496V225.224H812.521L812.377 223.28C811.465 224.72 810.025 225.464 808.345 225.464C805.321 225.464 803.545 223.664 803.545 220.712V211.496H806.857V220.184C806.857 221.792 807.745 222.632 809.257 222.632C810.985 222.632 812.185 221.456 812.257 219.728V211.496H815.569Z" fill="black"/>
<path d="M817.966 218.432C817.966 214.04 820.27 211.256 823.87 211.256C825.79 211.256 827.23 212.024 828.07 213.488V206.264H831.358V225.224H828.31L828.118 223.088C827.374 224.6 825.718 225.464 823.798 225.464C820.198 225.464 817.966 222.728 817.966 218.432ZM821.35 218.408C821.35 221.24 822.526 222.776 824.662 222.776C826.774 222.776 828.07 221.336 828.07 218.96V217.856C828.07 215.408 826.798 213.92 824.662 213.92C822.526 213.92 821.35 215.528 821.35 218.408Z" fill="black"/>
<path d="M840.578 225.464C836.642 225.464 833.81 222.896 833.81 218.384C833.81 214.064 836.402 211.256 840.434 211.256C844.754 211.256 847.202 214.424 846.818 219.248H837.194C837.242 221.72 838.634 222.944 840.65 222.944C842.33 222.944 843.458 222.104 843.89 220.832L846.746 221.528C846.05 223.904 843.746 225.464 840.578 225.464ZM837.194 217.088H843.458C843.434 215.048 842.21 213.728 840.338 213.728C838.538 213.728 837.266 214.952 837.194 217.088Z" fill="black"/>
<path d="M849.275 225.224V211.496H852.323L852.467 213.44C853.547 211.928 854.891 211.256 856.739 211.256C859.523 211.256 861.395 212.864 861.395 216.008V225.224H858.083V216.44C858.083 214.976 857.219 214.088 855.611 214.088C853.979 214.088 852.659 215.24 852.587 217.088V225.224H849.275Z" fill="black"/>
<path d="M868.422 225.392C866.118 225.392 864.99 224.48 864.99 222.56V213.824L863.214 213.872V211.496L864.99 211.544V207.92H868.254V211.544L870.51 211.496V213.872L868.254 213.824V221.48C868.254 222.512 868.494 222.752 869.406 222.752C869.862 222.752 870.222 222.68 870.486 222.608V225.152C869.79 225.32 869.022 225.392 868.422 225.392Z" fill="black"/>
<path d="M881.585 225.464C878.825 225.464 877.169 224 877.169 221.768C877.169 219.224 878.921 218.072 881.465 217.592L884.297 217.088C885.497 216.872 885.881 216.368 885.881 215.552C885.881 214.448 885.209 213.728 883.505 213.704C881.681 213.704 880.577 214.448 880.577 216.08L877.529 215.744C877.649 212.984 879.713 211.28 883.601 211.28C887.081 211.28 889.193 212.696 889.193 215.672V222.08C889.193 223.616 889.385 224.696 889.625 224.816V225.224H886.385C886.265 224.768 886.169 224.072 886.145 223.496C885.377 224.72 883.601 225.464 881.585 225.464ZM882.689 223.208C884.225 223.208 885.641 222.44 885.953 221.24V218.624C885.737 218.792 885.065 218.984 884.369 219.128L882.593 219.464C881.033 219.776 880.529 220.472 880.529 221.408C880.529 222.608 881.345 223.208 882.689 223.208Z" fill="black"/>
<path d="M904.373 211.496V225.224H901.325L901.181 223.28C900.269 224.72 898.829 225.464 897.149 225.464C894.125 225.464 892.349 223.664 892.349 220.712V211.496H895.661V220.184C895.661 221.792 896.549 222.632 898.061 222.632C899.789 222.632 900.989 221.456 901.061 219.728V211.496H904.373Z" fill="black"/>
<path d="M912.7 225.464C909.124 225.464 907.012 223.736 906.724 221.072L909.892 220.688C909.916 222.152 910.948 223.136 912.748 223.136C914.164 223.136 915.124 222.584 915.124 221.456C915.124 219.968 913.636 219.848 911.356 219.344C908.836 218.768 907.252 217.688 907.252 215.408C907.252 212.936 909.436 211.256 912.7 211.256C916.036 211.256 918.028 212.816 918.316 215.432L915.244 215.84C915.196 214.4 914.284 213.56 912.652 213.56C911.308 213.56 910.54 214.208 910.54 215.12C910.54 216.344 911.692 216.656 913.756 217.088C916.204 217.616 918.46 218.432 918.508 221.288C918.556 224.12 916.012 225.464 912.7 225.464Z" fill="black"/>
<path d="M926.51 225.224V207.728H931.982L934.238 214.712C934.766 216.416 935.318 218.192 935.846 220.16C936.35 218.288 936.95 216.392 937.478 214.712L939.758 207.728H945.158V225.224H941.846V214.4C941.846 213.368 941.87 212 941.894 210.632C941.606 211.688 941.078 213.464 940.646 214.856L937.07 225.224H934.55L930.998 214.832C930.542 213.488 930.134 212.12 929.726 210.632V225.224H926.51Z" fill="black"/>
<path d="M950.307 209.624V206H953.211V209.624H950.307ZM955.611 209.624V206H958.491V209.624H955.611ZM960.483 211.496V225.224H957.435L957.291 223.28C956.379 224.72 954.939 225.464 953.259 225.464C950.235 225.464 948.459 223.664 948.459 220.712V211.496H951.771V220.184C951.771 221.792 952.659 222.632 954.171 222.632C955.899 222.632 957.099 221.456 957.171 219.728V211.496H960.483Z" fill="black"/>
<path d="M963.673 225.224V211.496H966.721L966.865 213.44C967.945 211.928 969.289 211.256 971.137 211.256C973.921 211.256 975.793 212.864 975.793 216.008V225.224H972.481V216.44C972.481 214.976 971.617 214.088 970.009 214.088C968.377 214.088 967.057 215.24 966.985 217.088V225.224H963.673Z" fill="black"/>
<path d="M984.043 225.464C980.467 225.464 978.355 223.736 978.067 221.072L981.235 220.688C981.259 222.152 982.291 223.136 984.091 223.136C985.507 223.136 986.467 222.584 986.467 221.456C986.467 219.968 984.979 219.848 982.699 219.344C980.179 218.768 978.595 217.688 978.595 215.408C978.595 212.936 980.779 211.256 984.043 211.256C987.379 211.256 989.371 212.816 989.659 215.432L986.587 215.84C986.539 214.4 985.628 213.56 983.995 213.56C982.651 213.56 981.883 214.208 981.883 215.12C981.883 216.344 983.035 216.656 985.099 217.088C987.547 217.616 989.803 218.432 989.851 221.288C989.899 224.12 987.355 225.464 984.043 225.464Z" fill="black"/>
<path d="M996.25 225.392C993.946 225.392 992.818 224.48 992.818 222.56V213.824L991.042 213.872V211.496L992.818 211.544V207.92H996.082V211.544L998.338 211.496V213.872L996.082 213.824V221.48C996.082 222.512 996.322 222.752 997.234 222.752C997.69 222.752 998.05 222.68 998.314 222.608V225.152C997.618 225.32 996.85 225.392 996.25 225.392Z" fill="black"/>
<path d="M1006.4 225.464C1002.46 225.464 999.63 222.896 999.63 218.384C999.63 214.064 1002.22 211.256 1006.25 211.256C1010.57 211.256 1013.02 214.424 1012.64 219.248H1003.01C1003.06 221.72 1004.45 222.944 1006.47 222.944C1008.15 222.944 1009.28 222.104 1009.71 220.832L1012.57 221.528C1011.87 223.904 1009.57 225.464 1006.4 225.464ZM1003.01 217.088H1009.28C1009.25 215.048 1008.03 213.728 1006.16 213.728C1004.36 213.728 1003.09 214.952 1003.01 217.088Z" fill="black"/>
<path d="M1015.09 225.224V211.496H1018.09L1018.26 213.464C1018.93 212.096 1020.04 211.328 1021.55 211.328C1022.01 211.328 1022.41 211.4 1022.7 211.496V214.496H1022.53C1022.29 214.4 1021.91 214.352 1021.5 214.352C1019.77 214.352 1018.65 215.408 1018.41 217.136V225.224H1015.09Z" fill="black"/>
<path d="M1021 228.968V227H1021.29C1022.34 227 1022.8 226.64 1022.8 225.752V225.224H1021.48V222.104H1024.65V226.112C1024.65 227.96 1023.49 228.968 1021.62 228.968H1021Z" fill="black"/>
<path d="M1031.69 218.432C1031.69 214.04 1034 211.256 1037.6 211.256C1039.52 211.256 1040.96 212.024 1041.8 213.488V206.264H1045.08V225.224H1042.04L1041.84 223.088C1041.1 224.6 1039.45 225.464 1037.53 225.464C1033.93 225.464 1031.69 222.728 1031.69 218.432ZM1035.08 218.408C1035.08 221.24 1036.25 222.776 1038.39 222.776C1040.5 222.776 1041.8 221.336 1041.8 218.96V217.856C1041.8 215.408 1040.53 213.92 1038.39 213.92C1036.25 213.92 1035.08 215.528 1035.08 218.408Z" fill="black"/>
<path d="M1054.3 225.464C1050.37 225.464 1047.54 222.896 1047.54 218.384C1047.54 214.064 1050.13 211.256 1054.16 211.256C1058.48 211.256 1060.93 214.424 1060.54 219.248H1050.92C1050.97 221.72 1052.36 222.944 1054.38 222.944C1056.06 222.944 1057.18 222.104 1057.62 220.832L1060.47 221.528C1059.78 223.904 1057.47 225.464 1054.3 225.464ZM1050.92 217.088H1057.18C1057.16 215.048 1055.94 213.728 1054.06 213.728C1052.26 213.728 1050.99 214.952 1050.92 217.088Z" fill="black"/>
<path d="M1063 225.224V211.496H1066L1066.17 213.464C1066.84 212.096 1067.95 211.328 1069.46 211.328C1069.91 211.328 1070.32 211.4 1070.61 211.496V214.496H1070.44C1070.2 214.4 1069.82 214.352 1069.41 214.352C1067.68 214.352 1066.55 215.408 1066.31 217.136V225.224H1063Z" fill="black"/>
<path d="M1083.77 225.464C1079.83 225.464 1077 222.896 1077 218.384C1077 214.064 1079.59 211.256 1083.62 211.256C1087.94 211.256 1090.39 214.424 1090.01 219.248H1080.38C1080.43 221.72 1081.82 222.944 1083.84 222.944C1085.52 222.944 1086.65 222.104 1087.08 220.832L1089.93 221.528C1089.24 223.904 1086.93 225.464 1083.77 225.464ZM1080.38 217.088H1086.65C1086.62 215.048 1085.4 213.728 1083.53 213.728C1081.73 213.728 1080.45 214.952 1080.38 217.088Z" fill="black"/>
<path d="M1097.6 225.464C1094.02 225.464 1091.91 223.736 1091.62 221.072L1094.79 220.688C1094.81 222.152 1095.85 223.136 1097.65 223.136C1099.06 223.136 1100.02 222.584 1100.02 221.456C1100.02 219.968 1098.53 219.848 1096.25 219.344C1093.73 218.768 1092.15 217.688 1092.15 215.408C1092.15 212.936 1094.33 211.256 1097.6 211.256C1100.93 211.256 1102.93 212.816 1103.21 215.432L1100.14 215.84C1100.09 214.4 1099.18 213.56 1097.55 213.56C1096.21 213.56 1095.44 214.208 1095.44 215.12C1095.44 216.344 1096.59 216.656 1098.65 217.088C1101.1 217.616 1103.36 218.432 1103.41 221.288C1103.45 224.12 1100.91 225.464 1097.6 225.464Z" fill="black"/>
<path d="M641.384 258.224V239.264H644.696V258.224H641.384Z" fill="black"/>
<path d="M647.9 242.624V239.24H651.188V242.624H647.9ZM647.9 258.224V244.496H651.188V258.224H647.9Z" fill="black"/>
<path d="M660.391 258.464C656.455 258.464 653.623 255.896 653.623 251.384C653.623 247.064 656.215 244.256 660.247 244.256C664.567 244.256 667.015 247.424 666.631 252.248H657.007C657.055 254.72 658.447 255.944 660.463 255.944C662.143 255.944 663.271 255.104 663.703 253.832L666.559 254.528C665.863 256.904 663.559 258.464 660.391 258.464ZM657.007 250.088H663.271C663.247 248.048 662.023 246.728 660.151 246.728C658.351 246.728 657.079 247.952 657.007 250.088Z" fill="black"/>
<path d="M669.087 258.224V239.264H672.399V246.488C673.239 244.976 674.751 244.256 676.575 244.256C680.175 244.256 682.479 247.04 682.479 251.432C682.479 255.728 680.247 258.464 676.647 258.464C674.727 258.464 673.071 257.6 672.327 256.088L672.135 258.224H669.087ZM672.399 252.056C672.399 254.384 673.695 255.776 675.783 255.776C677.919 255.776 679.119 254.216 679.119 251.408C679.119 248.528 677.943 246.92 675.783 246.92C673.671 246.92 672.399 248.408 672.399 250.856V252.056Z" fill="black"/>
<path d="M688.937 258.392C686.633 258.392 685.505 257.48 685.505 255.56V246.824L683.729 246.872V244.496L685.505 244.544V240.92H688.769V244.544L691.025 244.496V246.872L688.769 246.824V254.48C688.769 255.512 689.009 255.752 689.921 255.752C690.377 255.752 690.737 255.68 691.001 255.608V258.152C690.305 258.32 689.537 258.392 688.937 258.392Z" fill="black"/>
<path d="M692.241 261.968V260H692.529C693.585 260 694.041 259.64 694.041 258.752V258.224H692.721V255.104H695.889V259.112C695.889 260.96 694.737 261.968 692.865 261.968H692.241Z" fill="black"/>
<path d="M704.111 258.224V240.728H707.471V249.344C708.263 248.336 709.151 247.376 709.943 246.488L715.031 240.728H719.135L712.607 247.904L719.519 258.224H715.559L710.231 250.232L707.471 253.28V258.224H704.111Z" fill="black"/>
<path d="M721.165 258.224V244.496H724.165L724.333 246.464C725.005 245.096 726.109 244.328 727.621 244.328C728.077 244.328 728.485 244.4 728.773 244.496V247.496H728.605C728.365 247.4 727.981 247.352 727.573 247.352C725.845 247.352 724.717 248.408 724.477 250.136V258.224H721.165Z" fill="black"/>
<path d="M736.352 258.464C732.416 258.464 729.584 255.896 729.584 251.384C729.584 247.064 732.176 244.256 736.208 244.256C740.528 244.256 742.976 247.424 742.592 252.248H732.968C733.016 254.72 734.408 255.944 736.424 255.944C738.104 255.944 739.232 255.104 739.664 253.832L742.52 254.528C741.824 256.904 739.52 258.464 736.352 258.464ZM732.968 250.088H739.232C739.208 248.048 737.984 246.728 736.112 246.728C734.312 246.728 733.04 247.952 732.968 250.088Z" fill="black"/>
<path d="M748.624 258.464C745.864 258.464 744.208 257 744.208 254.768C744.208 252.224 745.96 251.072 748.504 250.592L751.336 250.088C752.536 249.872 752.92 249.368 752.92 248.552C752.92 247.448 752.248 246.728 750.544 246.704C748.72 246.704 747.616 247.448 747.616 249.08L744.568 248.744C744.688 245.984 746.752 244.28 750.64 244.28C754.12 244.28 756.232 245.696 756.232 248.672V255.08C756.232 256.616 756.424 257.696 756.664 257.816V258.224H753.424C753.304 257.768 753.208 257.072 753.184 256.496C752.416 257.72 750.64 258.464 748.624 258.464ZM749.728 256.208C751.264 256.208 752.68 255.44 752.992 254.24V251.624C752.776 251.792 752.104 251.984 751.408 252.128L749.632 252.464C748.072 252.776 747.568 253.472 747.568 254.408C747.568 255.608 748.384 256.208 749.728 256.208Z" fill="black"/>
<path d="M763.398 258.392C761.094 258.392 759.966 257.48 759.966 255.56V246.824L758.19 246.872V244.496L759.966 244.544V240.92H763.23V244.544L765.486 244.496V246.872L763.23 246.824V254.48C763.23 255.512 763.47 255.752 764.382 255.752C764.838 255.752 765.198 255.68 765.462 255.608V258.152C764.766 258.32 763.998 258.392 763.398 258.392Z" fill="black"/>
<path d="M767.806 242.624V239.24H771.094V242.624H767.806ZM767.806 258.224V244.496H771.094V258.224H767.806Z" fill="black"/>
<path d="M777.799 258.224L772.831 244.496H776.407L778.327 250.448C778.927 252.272 779.335 253.568 779.839 255.488C780.295 253.664 780.823 252.008 781.327 250.448L783.271 244.496H786.655L781.711 258.224H777.799Z" fill="black"/>
<path d="M788.384 242.624V239.24H791.672V242.624H788.384ZM788.384 258.224V244.496H791.672V258.224H788.384Z" fill="black"/>
<path d="M798.859 258.392C796.555 258.392 795.427 257.48 795.427 255.56V246.824L793.651 246.872V244.496L795.427 244.544V240.92H798.691V244.544L800.947 244.496V246.872L798.691 246.824V254.48C798.691 255.512 798.931 255.752 799.843 255.752C800.299 255.752 800.659 255.68 800.923 255.608V258.152C800.227 258.32 799.459 258.392 798.859 258.392Z" fill="black"/>
<path d="M804.827 242.648V239.024H807.731V242.648H804.827ZM810.131 242.648V239.024H813.011V242.648H810.131ZM806.843 258.464C804.083 258.464 802.427 257 802.427 254.768C802.427 252.224 804.179 251.072 806.723 250.592L809.555 250.088C810.755 249.872 811.139 249.368 811.139 248.552C811.139 247.448 810.467 246.728 808.763 246.704C806.939 246.704 805.835 247.448 805.835 249.08L802.787 248.744C802.907 245.984 804.971 244.28 808.859 244.28C812.339 244.28 814.451 245.696 814.451 248.672V255.08C814.451 256.616 814.643 257.696 814.883 257.816V258.224H811.643C811.523 257.768 811.427 257.072 811.403 256.496C810.635 257.72 808.859 258.464 806.843 258.464ZM807.947 256.208C809.483 256.208 810.899 255.44 811.211 254.24V251.624C810.995 251.792 810.323 251.984 809.627 252.128L807.851 252.464C806.291 252.776 805.787 253.472 805.787 254.408C805.787 255.608 806.603 256.208 807.947 256.208Z" fill="black"/>
<path d="M821.617 258.392C819.313 258.392 818.185 257.48 818.185 255.56V246.824L816.409 246.872V244.496L818.185 244.544V240.92H821.449V244.544L823.705 244.496V246.872L821.449 246.824V254.48C821.449 255.512 821.689 255.752 822.601 255.752C823.057 255.752 823.417 255.68 823.681 255.608V258.152C822.985 258.32 822.217 258.392 821.617 258.392Z" fill="black"/>
<path d="M831.204 242.624V239.24H834.492V242.624H831.204ZM831.204 258.224V244.496H834.492V258.224H831.204Z" fill="black"/>
<path d="M837.697 258.224V244.496H840.745L840.888 246.44C841.969 244.928 843.312 244.256 845.161 244.256C847.945 244.256 849.817 245.864 849.817 249.008V258.224H846.505V249.44C846.505 247.976 845.64 247.088 844.032 247.088C842.4 247.088 841.081 248.24 841.008 250.088V258.224H837.697Z" fill="black"/>
<path d="M858.157 258.224V239.264H861.469V246.488C862.309 244.976 863.821 244.256 865.645 244.256C869.245 244.256 871.549 247.04 871.549 251.432C871.549 255.728 869.317 258.464 865.717 258.464C863.797 258.464 862.141 257.6 861.397 256.088L861.205 258.224H858.157ZM861.469 252.056C861.469 254.384 862.765 255.776 864.853 255.776C866.989 255.776 868.189 254.216 868.189 251.408C868.189 248.528 867.013 246.92 864.853 246.92C862.741 246.92 861.469 248.408 861.469 250.856V252.056Z" fill="black"/>
<path d="M880.188 258.464C876.252 258.464 873.42 255.896 873.42 251.384C873.42 247.064 876.012 244.256 880.044 244.256C884.364 244.256 886.812 247.424 886.428 252.248H876.804C876.852 254.72 878.244 255.944 880.26 255.944C881.94 255.944 883.068 255.104 883.5 253.832L886.356 254.528C885.66 256.904 883.356 258.464 880.188 258.464ZM876.804 250.088H883.068C883.044 248.048 881.82 246.728 879.948 246.728C878.148 246.728 876.876 247.952 876.804 250.088Z" fill="black"/>
<path d="M888.302 251.432C888.302 247.04 890.606 244.256 894.206 244.256C896.126 244.256 897.566 245.024 898.406 246.488V239.264H901.694V258.224H898.646L898.454 256.088C897.71 257.6 896.054 258.464 894.134 258.464C890.534 258.464 888.302 255.728 888.302 251.432ZM891.686 251.408C891.686 254.24 892.862 255.776 894.998 255.776C897.11 255.776 898.406 254.336 898.406 251.96V250.856C898.406 248.408 897.134 246.92 894.998 246.92C892.862 246.92 891.686 248.528 891.686 251.408Z" fill="black"/>
<path d="M910.914 258.464C906.978 258.464 904.146 255.896 904.146 251.384C904.146 247.064 906.738 244.256 910.77 244.256C915.09 244.256 917.538 247.424 917.154 252.248H907.53C907.578 254.72 908.97 255.944 910.986 255.944C912.666 255.944 913.794 255.104 914.226 253.832L917.082 254.528C916.386 256.904 914.082 258.464 910.914 258.464ZM907.53 250.088H913.794C913.77 248.048 912.546 246.728 910.674 246.728C908.874 246.728 907.602 247.952 907.53 250.088Z" fill="black"/>
<path d="M931.491 244.496V258.224H928.443L928.299 256.28C927.387 257.72 925.947 258.464 924.267 258.464C921.243 258.464 919.467 256.664 919.467 253.712V244.496H922.779V253.184C922.779 254.792 923.667 255.632 925.179 255.632C926.907 255.632 928.107 254.456 928.179 252.728V244.496H931.491Z" fill="black"/>
<path d="M938.687 258.392C936.383 258.392 935.255 257.48 935.255 255.56V246.824L933.479 246.872V244.496L935.255 244.544V240.92H938.519V244.544L940.775 244.496V246.872L938.519 246.824V254.48C938.519 255.512 938.759 255.752 939.671 255.752C940.127 255.752 940.487 255.68 940.751 255.608V258.152C940.055 258.32 939.287 258.392 938.687 258.392Z" fill="black"/>
<path d="M954.975 244.496V258.224H951.927L951.783 256.28C950.871 257.72 949.431 258.464 947.751 258.464C944.727 258.464 942.951 256.664 942.951 253.712V244.496H946.263V253.184C946.263 254.792 947.151 255.632 948.663 255.632C950.391 255.632 951.591 254.456 951.663 252.728V244.496H954.975Z" fill="black"/>
<path d="M958.165 258.224V244.496H961.213L961.357 246.44C962.437 244.928 963.781 244.256 965.629 244.256C968.413 244.256 970.285 245.864 970.285 249.008V258.224H966.973V249.44C966.973 247.976 966.109 247.088 964.501 247.088C962.869 247.088 961.549 248.24 961.477 250.088V258.224H958.165Z" fill="black"/>
<path d="M978.775 262.472C975.271 262.472 973.255 261.032 972.823 258.824L975.99 258.368C976.254 259.496 977.334 260.024 978.918 260.024C980.958 260.024 982.207 259.184 982.207 257.384V254.936C981.415 256.304 979.998 257.048 978.246 257.048C974.814 257.048 972.63 254.408 972.63 250.616C972.63 246.848 974.766 244.28 978.126 244.28C979.974 244.28 981.559 245.12 982.279 246.536L982.422 244.496H985.495V257.288C985.495 260.456 983.287 262.472 978.775 262.472ZM979.062 254.528C980.982 254.528 982.207 253.088 982.207 251V250.256C982.207 248.168 980.958 246.8 979.039 246.8C977.07 246.8 975.99 248.264 975.99 250.64C975.99 252.992 977.047 254.528 979.062 254.528Z" fill="black"/>
<path d="M993.793 258.464C990.217 258.464 988.105 256.736 987.817 254.072L990.985 253.688C991.009 255.152 992.041 256.136 993.841 256.136C995.257 256.136 996.217 255.584 996.217 254.456C996.217 252.968 994.729 252.848 992.449 252.344C989.929 251.768 988.345 250.688 988.345 248.408C988.345 245.936 990.529 244.256 993.793 244.256C997.129 244.256 999.121 245.816 999.409 248.432L996.337 248.84C996.289 247.4 995.378 246.56 993.745 246.56C992.401 246.56 991.633 247.208 991.633 248.12C991.633 249.344 992.785 249.656 994.849 250.088C997.297 250.616 999.553 251.432 999.601 254.288C999.649 257.12 997.105 258.464 993.793 258.464Z" fill="black"/>
<path d="M1005.28 258.224L1000.32 244.496H1003.89L1005.81 250.448C1006.41 252.272 1006.82 253.568 1007.32 255.488C1007.78 253.664 1008.31 252.008 1008.81 250.448L1010.76 244.496H1014.14L1009.2 258.224H1005.28Z" fill="black"/>
<path d="M1014.84 251.384C1014.84 247.088 1017.51 244.256 1021.61 244.256C1025.69 244.256 1028.33 247.088 1028.33 251.36C1028.33 255.656 1025.69 258.464 1021.61 258.464C1017.48 258.464 1014.84 255.632 1014.84 251.384ZM1018.13 251.36C1018.13 254.192 1019.4 255.8 1021.59 255.8C1023.77 255.8 1025.04 254.168 1025.04 251.36C1025.04 248.528 1023.77 246.92 1021.61 246.92C1019.4 246.92 1018.13 248.576 1018.13 251.36Z" fill="black"/>
<path d="M1030.75 258.224V239.264H1034.06V258.224H1030.75Z" fill="black"/>
<path d="M1037.29 258.224V239.264H1040.6V258.224H1037.29Z" fill="black"/>
<path d="M1049.8 258.464C1045.87 258.464 1043.04 255.896 1043.04 251.384C1043.04 247.064 1045.63 244.256 1049.66 244.256C1053.98 244.256 1056.43 247.424 1056.04 252.248H1046.42C1046.47 254.72 1047.86 255.944 1049.88 255.944C1051.56 255.944 1052.68 255.104 1053.12 253.832L1055.97 254.528C1055.28 256.904 1052.97 258.464 1049.8 258.464ZM1046.42 250.088H1052.68C1052.66 248.048 1051.44 246.728 1049.56 246.728C1047.76 246.728 1046.49 247.952 1046.42 250.088Z" fill="black"/>
<path d="M1063.64 258.464C1060.06 258.464 1057.95 256.736 1057.66 254.072L1060.83 253.688C1060.85 255.152 1061.89 256.136 1063.69 256.136C1065.1 256.136 1066.06 255.584 1066.06 254.456C1066.06 252.968 1064.57 252.848 1062.29 252.344C1059.77 251.768 1058.19 250.688 1058.19 248.408C1058.19 245.936 1060.37 244.256 1063.64 244.256C1066.97 244.256 1068.97 245.816 1069.25 248.432L1066.18 248.84C1066.13 247.4 1065.22 246.56 1063.59 246.56C1062.25 246.56 1061.48 247.208 1061.48 248.12C1061.48 249.344 1062.63 249.656 1064.69 250.088C1067.14 250.616 1069.4 251.432 1069.45 254.288C1069.49 257.12 1066.95 258.464 1063.64 258.464Z" fill="black"/>
<path d="M641.744 291.224V273.728H648.896C654.152 273.728 657.2 277.136 657.2 282.488C657.2 287.768 654.2 291.224 648.896 291.224H641.744ZM645.104 288.392H648.8C651.872 288.392 653.744 286.256 653.744 282.464C653.744 278.648 651.848 276.56 648.8 276.56H645.104V288.392Z" fill="black"/>
<path d="M665.875 291.464C661.939 291.464 659.107 288.896 659.107 284.384C659.107 280.064 661.699 277.256 665.731 277.256C670.051 277.256 672.499 280.424 672.115 285.248H662.491C662.539 287.72 663.931 288.944 665.947 288.944C667.627 288.944 668.755 288.104 669.187 286.832L672.043 287.528C671.347 289.904 669.043 291.464 665.875 291.464ZM662.491 283.088H668.755C668.731 281.048 667.507 279.728 665.635 279.728C663.835 279.728 662.563 280.952 662.491 283.088Z" fill="black"/>
<path d="M679.708 291.464C676.132 291.464 674.02 289.736 673.732 287.072L676.899 286.688C676.923 288.152 677.956 289.136 679.755 289.136C681.172 289.136 682.131 288.584 682.131 287.456C682.131 285.968 680.644 285.848 678.364 285.344C675.844 284.768 674.26 283.688 674.26 281.408C674.26 278.936 676.444 277.256 679.708 277.256C683.044 277.256 685.035 278.816 685.323 281.432L682.252 281.84C682.204 280.4 681.292 279.56 679.659 279.56C678.315 279.56 677.547 280.208 677.547 281.12C677.547 282.344 678.699 282.656 680.763 283.088C683.211 283.616 685.468 284.432 685.516 287.288C685.563 290.12 683.02 291.464 679.708 291.464Z" fill="black"/>
<path d="M687.907 275.624V272.24H691.195V275.624H687.907ZM687.907 291.224V277.496H691.195V291.224H687.907Z" fill="black"/>
<path d="M699.774 295.472C696.27 295.472 694.255 294.032 693.823 291.824L696.99 291.368C697.254 292.496 698.335 293.024 699.919 293.024C701.958 293.024 703.206 292.184 703.206 290.384V287.936C702.414 289.304 700.999 290.048 699.247 290.048C695.815 290.048 693.63 287.408 693.63 283.616C693.63 279.848 695.767 277.28 699.127 277.28C700.975 277.28 702.559 278.12 703.279 279.536L703.422 277.496H706.495V290.288C706.495 293.456 704.286 295.472 699.774 295.472ZM700.062 287.528C701.982 287.528 703.206 286.088 703.206 284V283.256C703.206 281.168 701.958 279.8 700.039 279.8C698.07 279.8 696.99 281.264 696.99 283.64C696.99 285.992 698.047 287.528 700.062 287.528Z" fill="black"/>
<path d="M709.611 291.224V277.496H712.659L712.803 279.44C713.883 277.928 715.227 277.256 717.075 277.256C719.859 277.256 721.731 278.864 721.731 282.008V291.224H718.419V282.44C718.419 280.976 717.555 280.088 715.947 280.088C714.315 280.088 712.995 281.24 712.923 283.088V291.224H709.611Z" fill="black"/>
<path d="M733.287 288.608H740.656V291.224H729.208V288.872L736.167 280.112H729.544V277.496H740.296V279.824L733.287 288.608Z" fill="black"/>
<path d="M754.795 277.496V291.224H751.747L751.603 289.28C750.691 290.72 749.251 291.464 747.571 291.464C744.547 291.464 742.771 289.664 742.771 286.712V277.496H746.083V286.184C746.083 287.792 746.971 288.632 748.483 288.632C750.211 288.632 751.411 287.456 751.483 285.728V277.496H754.795Z" fill="black"/>
<path d="M766.666 291.224L761.698 277.496H765.274L767.194 283.448C767.794 285.272 768.202 286.568 768.706 288.488C769.162 286.664 769.69 285.008 770.194 283.448L772.138 277.496H775.522L770.578 291.224H766.666Z" fill="black"/>
<path d="M782.992 291.464C779.056 291.464 776.224 288.896 776.224 284.384C776.224 280.064 778.816 277.256 782.848 277.256C787.168 277.256 789.616 280.424 789.232 285.248H779.608C779.656 287.72 781.048 288.944 783.064 288.944C784.744 288.944 785.872 288.104 786.304 286.832L789.16 287.528C788.464 289.904 786.16 291.464 782.992 291.464ZM779.608 283.088H785.872C785.848 281.048 784.624 279.728 782.752 279.728C780.952 279.728 779.68 280.952 779.608 283.088Z" fill="black"/>
<path d="M791.689 291.224V277.496H794.689L794.857 279.464C795.529 278.096 796.633 277.328 798.145 277.328C798.601 277.328 799.009 277.4 799.297 277.496V280.496H799.129C798.889 280.4 798.505 280.352 798.097 280.352C796.369 280.352 795.241 281.408 795.001 283.136V291.224H791.689Z" fill="black"/>
<path d="M804.277 291.224L800.773 277.496H804.157L806.437 287.984L808.717 277.496H812.173L814.501 287.84L816.781 277.496H820.021L816.565 291.224H812.605L810.421 281.432L808.333 291.224H804.277Z" fill="black"/>
<path d="M825.382 291.464C822.622 291.464 820.966 290 820.966 287.768C820.966 285.224 822.718 284.072 825.262 283.592L828.094 283.088C829.294 282.872 829.678 282.368 829.678 281.552C829.678 280.448 829.006 279.728 827.302 279.704C825.478 279.704 824.374 280.448 824.374 282.08L821.326 281.744C821.446 278.984 823.51 277.28 827.398 277.28C830.878 277.28 832.99 278.696 832.99 281.672V288.08C832.99 289.616 833.182 290.696 833.422 290.816V291.224H830.182C830.062 290.768 829.966 290.072 829.942 289.496C829.174 290.72 827.398 291.464 825.382 291.464ZM826.486 289.208C828.022 289.208 829.438 288.44 829.75 287.24V284.624C829.534 284.792 828.862 284.984 828.166 285.128L826.39 285.464C824.83 285.776 824.326 286.472 824.326 287.408C824.326 288.608 825.142 289.208 826.486 289.208Z" fill="black"/>
<path d="M836.361 291.224V277.496H839.409L839.553 279.44C840.633 277.928 841.977 277.256 843.825 277.256C846.609 277.256 848.481 278.864 848.481 282.008V291.224H845.169V282.44C845.169 280.976 844.305 280.088 842.697 280.088C841.065 280.088 839.745 281.24 839.673 283.088V291.224H836.361Z" fill="black"/>
<path d="M850.826 284.432C850.826 280.04 853.13 277.256 856.73 277.256C858.65 277.256 860.09 278.024 860.93 279.488V272.264H864.218V291.224H861.17L860.978 289.088C860.234 290.6 858.578 291.464 856.658 291.464C853.058 291.464 850.826 288.728 850.826 284.432ZM854.21 284.408C854.21 287.24 855.386 288.776 857.522 288.776C859.634 288.776 860.93 287.336 860.93 284.96V283.856C860.93 281.408 859.658 279.92 857.522 279.92C855.386 279.92 854.21 281.528 854.21 284.408Z" fill="black"/>
<path d="M873.438 291.464C869.502 291.464 866.67 288.896 866.67 284.384C866.67 280.064 869.262 277.256 873.294 277.256C877.614 277.256 880.062 280.424 879.678 285.248H870.054C870.102 287.72 871.494 288.944 873.51 288.944C875.19 288.944 876.318 288.104 876.75 286.832L879.606 287.528C878.91 289.904 876.606 291.464 873.438 291.464ZM870.054 283.088H876.318C876.294 281.048 875.07 279.728 873.198 279.728C871.398 279.728 870.126 280.952 870.054 283.088Z" fill="black"/>
<path d="M882.134 291.224V272.264H885.446V291.224H882.134Z" fill="black"/>
<path d="M888.65 291.224V277.496H891.698L891.842 279.44C892.922 277.928 894.266 277.256 896.114 277.256C898.898 277.256 900.77 278.864 900.77 282.008V291.224H897.458V282.44C897.458 280.976 896.594 280.088 894.986 280.088C893.354 280.088 892.034 281.24 891.962 283.088V291.224H888.65Z" fill="black"/>
<path d="M904.513 285.752L903.889 277.712V273.728H907.201V277.712L906.577 285.752H904.513ZM903.937 291.224V287.984H907.129V291.224H903.937Z" fill="black"/>
</svg>
