<svg width="348" height="168" viewBox="0 0 348 168" fill="none" xmlns="http://www.w3.org/2000/svg">
<path d="M1.39772 46.036L17.0777 6.5H25.0297L40.5417 46.036H31.2457L19.3737 13.22H22.5657L10.5257 46.036H1.39772ZM10.3017 38.868V31.7H31.8617V38.868H10.3017Z" fill="#1D1D1D"/>
<path d="M45.8451 46.036V6.5H54.6371V46.036H45.8451ZM52.6211 46.036V38.308H72.1651V46.036H52.6211Z" fill="#1D1D1D"/>
<path d="M78.3557 46.036V6.5H87.1477V46.036H78.3557ZM85.0757 46.036V38.42H106.748V46.036H85.0757ZM85.0757 29.516V22.18H104.788V29.516H85.0757ZM85.0757 14.06V6.5H106.468V14.06H85.0757Z" fill="#1D1D1D"/>
<path d="M140.137 46.036L129.105 28.396H128.041L112.809 6.5H123.281L134.145 23.076H135.209L150.441 46.036H140.137ZM112.081 46.036L126.697 24.868L133.473 28.676L122.105 46.036H112.081ZM135.545 27.388L128.769 23.58L139.745 6.5H149.769L135.545 27.388Z" fill="#1D1D1D"/>
<path d="M155.019 46.036L170.699 6.5H178.651L194.163 46.036H184.867L172.995 13.22H176.187L164.147 46.036H155.019ZM163.923 38.868V31.7H185.483V38.868H163.923Z" fill="#1D1D1D"/>
<path d="M200.027 46.036V6.5H206.187L208.819 14.396V46.036H200.027ZM227.299 46.036L204.003 16.188L206.187 6.5L229.483 36.348L227.299 46.036ZM227.299 46.036L224.947 38.14V6.5H233.739V46.036H227.299Z" fill="#1D1D1D"/>
<path d="M245.626 46.036V38.308H255.426C257.816 38.308 259.906 37.8413 261.698 36.908C263.49 35.9373 264.872 34.5373 265.842 32.708C266.813 30.8787 267.298 28.7133 267.298 26.212C267.298 23.7107 266.794 21.564 265.786 19.772C264.816 17.98 263.434 16.5987 261.642 15.628C259.888 14.6573 257.816 14.172 255.426 14.172H245.346V6.5H255.538C258.525 6.5 261.269 6.98533 263.77 7.956C266.309 8.88933 268.512 10.252 270.378 12.044C272.282 13.7987 273.738 15.8893 274.746 18.316C275.792 20.7053 276.314 23.356 276.314 26.268C276.314 29.1427 275.792 31.7933 274.746 34.22C273.738 36.6467 272.301 38.7373 270.434 40.492C268.568 42.2467 266.365 43.6093 263.826 44.58C261.325 45.5507 258.6 46.036 255.65 46.036H245.626ZM239.69 46.036V6.5H248.482V46.036H239.69Z" fill="#1D1D1D"/>
<path d="M280.789 46.036V6.5H289.581V46.036H280.789ZM287.509 46.036V38.42H309.181V46.036H287.509ZM287.509 29.516V22.18H307.221V29.516H287.509ZM287.509 14.06V6.5H308.901V14.06H287.509Z" fill="#1D1D1D"/>
<path d="M321.402 29.74V23.244H329.746C331.501 23.244 332.845 22.796 333.778 21.9C334.749 21.004 335.234 19.7907 335.234 18.26C335.234 16.8413 334.768 15.6653 333.834 14.732C332.901 13.7987 331.557 13.332 329.802 13.332H321.402V6.5H330.81C333.424 6.5 335.72 7.004 337.698 8.012C339.677 8.98267 341.226 10.3453 342.346 12.1C343.466 13.8547 344.026 15.8707 344.026 18.148C344.026 20.4627 343.466 22.4973 342.346 24.252C341.226 25.9693 339.658 27.3133 337.642 28.284C335.626 29.2547 333.256 29.74 330.53 29.74H321.402ZM314.682 46.036V6.5H323.474V46.036H314.682ZM336.186 46.036L323.866 29.012L331.93 26.828L346.602 46.036H336.186Z" fill="#1D1D1D"/>
<path d="M95.2935 94.036V54.5H104.086V94.036H95.2935ZM119.766 94.036V54.5H128.614V94.036H119.766ZM100.558 77.516V69.9H122.678V77.516H100.558Z" fill="#1D1D1D"/>
<path d="M154.512 94.708C151.525 94.708 148.762 94.1853 146.224 93.14C143.722 92.0947 141.52 90.6387 139.616 88.772C137.712 86.9053 136.237 84.74 135.192 82.276C134.146 79.7747 133.624 77.0867 133.624 74.212C133.624 71.3 134.146 68.612 135.192 66.148C136.237 63.684 137.693 61.5373 139.56 59.708C141.426 57.8413 143.61 56.404 146.112 55.396C148.65 54.3507 151.413 53.828 154.4 53.828C157.349 53.828 160.074 54.3507 162.576 55.396C165.114 56.404 167.317 57.8413 169.184 59.708C171.088 61.5373 172.562 63.7027 173.608 66.204C174.653 68.668 175.176 71.356 175.176 74.268C175.176 77.1427 174.653 79.8307 173.608 82.332C172.562 84.796 171.106 86.9613 169.24 88.828C167.373 90.6573 165.17 92.0947 162.632 93.14C160.13 94.1853 157.424 94.708 154.512 94.708ZM154.4 86.7C156.752 86.7 158.805 86.1773 160.56 85.132C162.352 84.0867 163.733 82.6307 164.704 80.764C165.674 78.86 166.16 76.676 166.16 74.212C166.16 72.3453 165.88 70.6653 165.32 69.172C164.76 67.6413 163.957 66.3347 162.912 65.252C161.866 64.132 160.616 63.292 159.16 62.732C157.741 62.1347 156.154 61.836 154.4 61.836C152.048 61.836 149.976 62.3587 148.184 63.404C146.429 64.412 145.066 65.8493 144.096 67.716C143.125 69.5453 142.64 71.7107 142.64 74.212C142.64 76.0787 142.92 77.7773 143.48 79.308C144.04 80.8387 144.824 82.164 145.832 83.284C146.877 84.3667 148.128 85.2067 149.584 85.804C151.04 86.4013 152.645 86.7 154.4 86.7Z" fill="#1D1D1D"/>
<path d="M200.512 94.652C197.637 94.652 194.931 94.1293 192.392 93.084C189.891 92.0387 187.707 90.6013 185.84 88.772C183.973 86.9053 182.499 84.74 181.416 82.276C180.371 79.7747 179.848 77.0867 179.848 74.212C179.848 71.3373 180.389 68.668 181.472 66.204C182.555 63.74 184.048 61.5933 185.952 59.764C187.893 57.8973 190.152 56.46 192.728 55.452C195.304 54.4067 198.067 53.884 201.016 53.884C204.413 53.884 207.493 54.5 210.256 55.732C213.056 56.964 215.371 58.6627 217.2 60.828L211.208 66.82C209.939 65.1773 208.445 63.9453 206.728 63.124C205.011 62.3027 203.069 61.892 200.904 61.892C198.589 61.892 196.517 62.4147 194.688 63.46C192.859 64.468 191.421 65.9053 190.376 67.772C189.368 69.6013 188.864 71.748 188.864 74.212C188.864 76.676 189.368 78.8413 190.376 80.708C191.384 82.5747 192.765 84.0307 194.52 85.076C196.275 86.1213 198.291 86.644 200.568 86.644C202.883 86.644 204.843 86.2147 206.448 85.356C208.091 84.46 209.341 83.1907 210.2 81.548C211.096 79.868 211.544 77.8333 211.544 75.444L217.368 79.364L199.728 79.084V71.636H220.504V72.924C220.504 77.6653 219.645 81.66 217.928 84.908C216.248 88.1187 213.896 90.5453 210.872 92.188C207.885 93.8307 204.432 94.652 200.512 94.652Z" fill="#1D1D1D"/>
<path d="M225.833 94.036V54.5H234.625V94.036H225.833ZM232.553 94.036V86.42H254.225V94.036H232.553ZM232.553 77.516V70.18H252.265V77.516H232.553ZM232.553 62.06V54.5H253.945V62.06H232.553Z" fill="#1D1D1D"/>
<path d="M254 100.208V101.208H94V100.208H254ZM348 0V1H0V0H348Z" fill="#D9D9D9"/>
<path d="M40.8182 123.472V121.554H48.3362V123.472H40.8182Z" fill="#D9D9D9"/>
<path d="M53.3586 127.14C51.1326 127.14 49.6206 125.642 49.6206 123.052C49.6206 120.574 51.0066 118.95 53.2606 118.95C55.6686 118.95 56.9846 120.784 56.8306 123.402H51.0906C51.0906 125.096 52.0146 125.95 53.3866 125.95C54.4926 125.95 55.2206 125.404 55.5006 124.564L56.7746 124.858C56.3966 126.244 55.1646 127.14 53.3586 127.14ZM51.0906 122.38H55.3606C55.3466 120.994 54.5206 120.084 53.2326 120.084C52.0286 120.084 51.1466 120.882 51.0906 122.38Z" fill="black"/>
<path d="M58.5207 117.872V115.912H59.9487V117.872H58.5207ZM58.5207 127V119.09H59.9487V127H58.5207Z" fill="black"/>
<path d="M62.1711 127V119.09H63.4871L63.5711 120.28C64.2431 119.37 65.0691 118.95 66.1471 118.95C67.7291 118.95 68.8631 119.846 68.8631 121.708V127H67.4351V121.848C67.4351 120.868 66.8751 120.238 65.7411 120.238C64.5791 120.238 63.6131 121.008 63.6131 122.296V127H62.1711Z" fill="black"/>
<path d="M74.7135 127V116.794H78.8855C81.7835 116.794 83.5335 118.796 83.5335 121.904C83.5335 124.942 81.8395 127 78.8855 127H74.7135ZM76.1695 125.684H78.8435C80.8455 125.684 81.9935 124.214 81.9935 121.89C81.9935 119.538 80.8175 118.11 78.8435 118.11H76.1695V125.684Z" fill="black"/>
<path d="M88.6183 127.14C86.3923 127.14 84.8803 125.642 84.8803 123.052C84.8803 120.574 86.2663 118.95 88.5203 118.95C90.9283 118.95 92.2443 120.784 92.0903 123.402H86.3503C86.3503 125.096 87.2743 125.95 88.6463 125.95C89.7523 125.95 90.4803 125.404 90.7603 124.564L92.0343 124.858C91.6563 126.244 90.4243 127.14 88.6183 127.14ZM86.3503 122.38H90.6203C90.6063 120.994 89.7803 120.084 88.4923 120.084C87.2883 120.084 86.4063 120.882 86.3503 122.38Z" fill="black"/>
<path d="M96.5105 127.14C94.4945 127.14 93.3325 126.104 93.1925 124.536L94.5925 124.382C94.5925 125.362 95.3485 126.02 96.5525 126.02C97.5605 126.02 98.2605 125.684 98.2605 124.858C98.2605 123.822 97.1825 123.766 95.8385 123.472C94.2425 123.122 93.5285 122.45 93.5285 121.246C93.5285 119.888 94.7185 118.95 96.4685 118.95C98.3725 118.95 99.4785 119.818 99.6185 121.4L98.2465 121.582C98.2465 120.672 97.6725 120.056 96.4685 120.056C95.5165 120.056 94.9845 120.504 94.9845 121.134C94.9845 121.946 95.6705 122.17 97.0845 122.45C98.4985 122.73 99.7025 123.206 99.7445 124.788C99.7865 126.44 98.3025 127.14 96.5105 127.14Z" fill="black"/>
<path d="M101.437 117.872V115.912H102.865V117.872H101.437ZM101.437 127V119.09H102.865V127H101.437Z" fill="black"/>
<path d="M107.984 129.478C106.052 129.478 104.89 128.708 104.666 127.42L106.024 127.21C106.22 128.036 106.962 128.372 108.054 128.372C109.384 128.372 110.266 127.868 110.266 126.566V124.984C109.776 125.852 108.908 126.356 107.802 126.356C105.8 126.356 104.554 124.788 104.554 122.618C104.554 120.476 105.772 118.95 107.732 118.95C108.894 118.95 109.846 119.496 110.266 120.392L110.35 119.09H111.68V126.538C111.68 128.302 110.49 129.478 107.984 129.478ZM108.11 125.166C109.398 125.166 110.266 124.186 110.266 122.884V122.352C110.266 121.064 109.37 120.14 108.068 120.14C106.752 120.14 106.024 121.12 106.024 122.632C106.024 124.13 106.738 125.166 108.11 125.166Z" fill="black"/>
<path d="M113.878 127V119.09H115.194L115.278 120.28C115.95 119.37 116.776 118.95 117.854 118.95C119.436 118.95 120.57 119.846 120.57 121.708V127H119.142V121.848C119.142 120.868 118.582 120.238 117.448 120.238C116.286 120.238 115.32 121.008 115.32 122.296V127H113.878Z" fill="black"/>
<path d="M125.509 127.14C123.493 127.14 122.331 126.104 122.191 124.536L123.591 124.382C123.591 125.362 124.347 126.02 125.551 126.02C126.559 126.02 127.259 125.684 127.259 124.858C127.259 123.822 126.181 123.766 124.837 123.472C123.241 123.122 122.527 122.45 122.527 121.246C122.527 119.888 123.717 118.95 125.467 118.95C127.371 118.95 128.477 119.818 128.617 121.4L127.245 121.582C127.245 120.672 126.671 120.056 125.467 120.056C124.515 120.056 123.983 120.504 123.983 121.134C123.983 121.946 124.669 122.17 126.083 122.45C127.497 122.73 128.701 123.206 128.743 124.788C128.785 126.44 127.301 127.14 125.509 127.14Z" fill="black"/>
<path d="M132.197 127.098C131.147 127.098 130.587 126.636 130.587 125.768V120.21H129.537V119.09H130.587V116.976H131.987V119.09H133.261V120.21H131.987V125.18C131.987 125.754 132.127 125.894 132.645 125.894C132.925 125.894 133.107 125.88 133.261 125.838V126.986C132.841 127.07 132.491 127.098 132.197 127.098Z" fill="black"/>
<path d="M141.334 119.09V127H140.004L139.934 125.81C139.444 126.636 138.52 127.14 137.512 127.14C135.706 127.14 134.726 126.076 134.726 124.452V119.09H136.168V124.326C136.168 125.306 136.812 125.852 137.806 125.852C139.052 125.852 139.892 125.054 139.892 123.878V119.09H141.334Z" fill="black"/>
<path d="M143.027 123.094C143.027 120.56 144.371 118.95 146.443 118.95C147.633 118.95 148.529 119.454 149.033 120.364V115.94H150.461V127H149.131L149.033 125.656C148.585 126.58 147.605 127.14 146.401 127.14C144.315 127.14 143.027 125.572 143.027 123.094ZM144.497 123.094C144.497 124.9 145.295 125.908 146.709 125.908C148.109 125.908 149.033 124.956 149.033 123.5V122.66C149.033 121.148 148.137 120.182 146.723 120.182C145.295 120.182 144.497 121.232 144.497 123.094Z" fill="black"/>
<path d="M155.898 127.14C153.672 127.14 152.16 125.642 152.16 123.052C152.16 120.574 153.546 118.95 155.8 118.95C158.208 118.95 159.524 120.784 159.37 123.402H153.63C153.63 125.096 154.554 125.95 155.926 125.95C157.032 125.95 157.76 125.404 158.04 124.564L159.314 124.858C158.936 126.244 157.704 127.14 155.898 127.14ZM153.63 122.38H157.9C157.886 120.994 157.06 120.084 155.772 120.084C154.568 120.084 153.686 120.882 153.63 122.38Z" fill="black"/>
<path d="M161.06 127V119.09H162.376L162.46 120.28C163.132 119.37 163.958 118.95 165.036 118.95C166.618 118.95 167.752 119.846 167.752 121.708V127H166.324V121.848C166.324 120.868 165.764 120.238 164.63 120.238C163.468 120.238 162.502 121.008 162.502 122.296V127H161.06Z" fill="black"/>
<path d="M171.668 127.098C170.618 127.098 170.058 126.636 170.058 125.768V120.21H169.008V119.09H170.058V116.976H171.458V119.09H172.732V120.21H171.458V125.18C171.458 125.754 171.598 125.894 172.116 125.894C172.396 125.894 172.578 125.88 172.732 125.838V126.986C172.312 127.07 171.962 127.098 171.668 127.098Z" fill="black"/>
<path d="M179.646 127.14C177.994 127.14 177.056 126.244 177.056 124.942C177.056 123.416 178.162 122.758 179.59 122.492L181.242 122.184C182.068 122.03 182.264 121.75 182.264 121.232C182.264 120.56 181.872 120.07 180.64 120.07C179.478 120.07 178.68 120.518 178.694 121.512L177.336 121.372C177.364 119.832 178.666 118.95 180.64 118.95C182.6 118.95 183.692 119.734 183.692 121.33V125.334C183.692 125.894 183.93 126.006 184.182 126.006C184.336 126.006 184.392 125.992 184.42 125.978H184.504V127C184.308 127.084 183.944 127.112 183.79 127.112C182.992 127.112 182.446 126.734 182.446 125.824C181.956 126.622 180.864 127.14 179.646 127.14ZM180.01 125.992C181.144 125.992 181.998 125.474 182.278 124.62V122.954C182.11 123.08 181.746 123.164 181.13 123.29L179.968 123.528C178.806 123.766 178.526 124.284 178.526 124.83C178.526 125.628 179.17 125.992 180.01 125.992Z" fill="black"/>
<path d="M192.535 119.09V127H191.205L191.135 125.81C190.645 126.636 189.721 127.14 188.713 127.14C186.907 127.14 185.927 126.076 185.927 124.452V119.09H187.369V124.326C187.369 125.306 188.013 125.852 189.007 125.852C190.253 125.852 191.093 125.054 191.093 123.878V119.09H192.535Z" fill="black"/>
<path d="M197.491 127.14C195.475 127.14 194.313 126.104 194.173 124.536L195.573 124.382C195.573 125.362 196.329 126.02 197.533 126.02C198.541 126.02 199.241 125.684 199.241 124.858C199.241 123.822 198.163 123.766 196.819 123.472C195.223 123.122 194.509 122.45 194.509 121.246C194.509 119.888 195.699 118.95 197.449 118.95C199.353 118.95 200.459 119.818 200.599 121.4L199.227 121.582C199.227 120.672 198.653 120.056 197.449 120.056C196.497 120.056 195.965 120.504 195.965 121.134C195.965 121.946 196.651 122.17 198.065 122.45C199.479 122.73 200.683 123.206 200.725 124.788C200.767 126.44 199.283 127.14 197.491 127.14Z" fill="black"/>
<path d="M206.073 127V116.794H208.523L210.091 121.064C210.497 122.184 210.903 123.346 211.337 124.578C211.729 123.43 212.191 122.156 212.597 121.064L214.179 116.794H216.573V127H215.117V120.028C215.117 119.552 215.131 118.726 215.131 118.04C214.991 118.432 214.599 119.65 214.291 120.49L211.869 127H210.763L208.355 120.49C208.061 119.678 207.781 118.852 207.501 118.04C207.487 118.572 207.487 119.3 207.487 120.028V127H206.073Z" fill="black"/>
<path d="M219.997 117.872V115.856H221.313V117.872H219.997ZM222.895 117.872V115.856H224.197V117.872H222.895ZM225.457 119.09V127H224.127L224.057 125.81C223.567 126.636 222.643 127.14 221.635 127.14C219.829 127.14 218.849 126.076 218.849 124.452V119.09H220.291V124.326C220.291 125.306 220.935 125.852 221.929 125.852C223.175 125.852 224.015 125.054 224.015 123.878V119.09H225.457Z" fill="black"/>
<path d="M227.683 127V119.09H228.999L229.083 120.28C229.755 119.37 230.581 118.95 231.659 118.95C233.241 118.95 234.375 119.846 234.375 121.708V127H232.947V121.848C232.947 120.868 232.387 120.238 231.253 120.238C230.091 120.238 229.125 121.008 229.125 122.296V127H227.683Z" fill="black"/>
<path d="M239.313 127.14C237.297 127.14 236.135 126.104 235.995 124.536L237.395 124.382C237.395 125.362 238.151 126.02 239.355 126.02C240.363 126.02 241.063 125.684 241.063 124.858C241.063 123.822 239.985 123.766 238.641 123.472C237.045 123.122 236.331 122.45 236.331 121.246C236.331 119.888 237.521 118.95 239.271 118.95C241.175 118.95 242.281 119.818 242.421 121.4L241.049 121.582C241.049 120.672 240.475 120.056 239.271 120.056C238.319 120.056 237.787 120.504 237.787 121.134C237.787 121.946 238.473 122.17 239.887 122.45C241.301 122.73 242.505 123.206 242.547 124.788C242.589 126.44 241.105 127.14 239.313 127.14Z" fill="black"/>
<path d="M246.002 127.098C244.952 127.098 244.392 126.636 244.392 125.768V120.21H243.342V119.09H244.392V116.976H245.792V119.09H247.066V120.21H245.792V125.18C245.792 125.754 245.932 125.894 246.45 125.894C246.73 125.894 246.912 125.88 247.066 125.838V126.986C246.646 127.07 246.296 127.098 246.002 127.098Z" fill="black"/>
<path d="M251.778 127.14C249.552 127.14 248.04 125.642 248.04 123.052C248.04 120.574 249.426 118.95 251.68 118.95C254.088 118.95 255.404 120.784 255.25 123.402H249.51C249.51 125.096 250.434 125.95 251.806 125.95C252.912 125.95 253.64 125.404 253.92 124.564L255.194 124.858C254.816 126.244 253.584 127.14 251.778 127.14ZM249.51 122.38H253.78C253.766 120.994 252.94 120.084 251.652 120.084C250.448 120.084 249.566 120.882 249.51 122.38Z" fill="black"/>
<path d="M256.941 127V119.09H258.229L258.313 120.252C258.719 119.454 259.377 119.006 260.217 119.006C260.497 119.006 260.721 119.034 260.861 119.09V120.448H260.763C260.609 120.392 260.399 120.364 260.217 120.364C259.153 120.364 258.481 121.064 258.383 122.17V127H256.941Z" fill="black"/>
<path d="M259.997 129.016V128.064H260.095C260.655 128.064 260.879 127.854 260.879 127.364V127H260.277V125.46H261.747V127.532C261.747 128.554 261.145 129.016 260.221 129.016H259.997Z" fill="black"/>
<path d="M266.361 123.094C266.361 120.56 267.705 118.95 269.777 118.95C270.967 118.95 271.863 119.454 272.367 120.364V115.94H273.795V127H272.465L272.367 125.656C271.919 126.58 270.939 127.14 269.735 127.14C267.649 127.14 266.361 125.572 266.361 123.094ZM267.831 123.094C267.831 124.9 268.629 125.908 270.043 125.908C271.443 125.908 272.367 124.956 272.367 123.5V122.66C272.367 121.148 271.471 120.182 270.057 120.182C268.629 120.182 267.831 121.232 267.831 123.094Z" fill="black"/>
<path d="M279.232 127.14C277.006 127.14 275.494 125.642 275.494 123.052C275.494 120.574 276.88 118.95 279.134 118.95C281.542 118.95 282.858 120.784 282.704 123.402H276.964C276.964 125.096 277.888 125.95 279.26 125.95C280.366 125.95 281.094 125.404 281.374 124.564L282.648 124.858C282.27 126.244 281.038 127.14 279.232 127.14ZM276.964 122.38H281.234C281.22 120.994 280.394 120.084 279.106 120.084C277.902 120.084 277.02 120.882 276.964 122.38Z" fill="black"/>
<path d="M284.394 127V119.09H285.682L285.766 120.252C286.172 119.454 286.83 119.006 287.67 119.006C287.95 119.006 288.174 119.034 288.314 119.09V120.448H288.216C288.062 120.392 287.852 120.364 287.67 120.364C286.606 120.364 285.934 121.064 285.836 122.17V127H284.394Z" fill="black"/>
<path d="M296.171 127.14C293.945 127.14 292.433 125.642 292.433 123.052C292.433 120.574 293.819 118.95 296.073 118.95C298.481 118.95 299.797 120.784 299.643 123.402H293.903C293.903 125.096 294.827 125.95 296.199 125.95C297.305 125.95 298.033 125.404 298.313 124.564L299.587 124.858C299.209 126.244 297.977 127.14 296.171 127.14ZM293.903 122.38H298.173C298.159 120.994 297.333 120.084 296.045 120.084C294.841 120.084 293.959 120.882 293.903 122.38Z" fill="black"/>
<path d="M304.063 127.14C302.047 127.14 300.885 126.104 300.745 124.536L302.145 124.382C302.145 125.362 302.901 126.02 304.105 126.02C305.113 126.02 305.813 125.684 305.813 124.858C305.813 123.822 304.735 123.766 303.391 123.472C301.795 123.122 301.081 122.45 301.081 121.246C301.081 119.888 302.271 118.95 304.021 118.95C305.925 118.95 307.031 119.818 307.171 121.4L305.799 121.582C305.799 120.672 305.225 120.056 304.021 120.056C303.069 120.056 302.537 120.504 302.537 121.134C302.537 121.946 303.223 122.17 304.637 122.45C306.051 122.73 307.255 123.206 307.297 124.788C307.339 126.44 305.855 127.14 304.063 127.14Z" fill="black"/>
<path d="M52.6005 146V134.94H54.0285V146H52.6005Z" fill="black"/>
<path d="M56.2512 136.872V134.912H57.6792V136.872H56.2512ZM56.2512 146V138.09H57.6792V146H56.2512Z" fill="black"/>
<path d="M63.1066 146.14C60.8806 146.14 59.3686 144.642 59.3686 142.052C59.3686 139.574 60.7546 137.95 63.0086 137.95C65.4166 137.95 66.7326 139.784 66.5786 142.402H60.8386C60.8386 144.096 61.7626 144.95 63.1346 144.95C64.2406 144.95 64.9686 144.404 65.2486 143.564L66.5226 143.858C66.1446 145.244 64.9126 146.14 63.1066 146.14ZM60.8386 141.38H65.1086C65.0946 139.994 64.2686 139.084 62.9806 139.084C61.7766 139.084 60.8946 139.882 60.8386 141.38Z" fill="black"/>
<path d="M68.2688 146V134.94H69.6968V139.364C70.2288 138.412 71.1528 137.95 72.2868 137.95C74.3588 137.95 75.7028 139.56 75.7028 142.094C75.7028 144.572 74.4008 146.14 72.3148 146.14C71.1248 146.14 70.1308 145.58 69.6828 144.656L69.5848 146H68.2688ZM69.6968 142.584C69.6968 143.984 70.6348 144.908 72.0068 144.908C73.4208 144.908 74.2328 143.886 74.2328 142.094C74.2328 140.232 73.4348 139.182 71.9928 139.182C70.5928 139.182 69.6968 140.148 69.6968 141.66V142.584Z" fill="black"/>
<path d="M79.1913 146.098C78.1413 146.098 77.5813 145.636 77.5813 144.768V139.21H76.5313V138.09H77.5813V135.976H78.9813V138.09H80.2553V139.21H78.9813V144.18C78.9813 144.754 79.1213 144.894 79.6393 144.894C79.9193 144.894 80.1013 144.88 80.2553 144.838V145.986C79.8353 146.07 79.4853 146.098 79.1913 146.098Z" fill="black"/>
<path d="M80.9779 148.016V147.064H81.0759C81.6359 147.064 81.8599 146.854 81.8599 146.364V146H81.2579V144.46H82.7279V146.532C82.7279 147.554 82.1259 148.016 81.2019 148.016H80.9779Z" fill="black"/>
<path d="M88.1393 146V135.794H89.5953V141.31C90.1413 140.666 90.7993 139.994 91.3733 139.378L94.6913 135.794H96.4693L92.4653 140.036L96.6513 146H94.9293L91.4293 141.072L89.5953 142.976V146H88.1393Z" fill="black"/>
<path d="M97.8 146V138.09H99.088L99.172 139.252C99.578 138.454 100.236 138.006 101.076 138.006C101.356 138.006 101.58 138.034 101.72 138.09V139.448H101.622C101.468 139.392 101.258 139.364 101.076 139.364C100.012 139.364 99.34 140.064 99.242 141.17V146H97.8Z" fill="black"/>
<path d="M105.954 146.14C103.728 146.14 102.216 144.642 102.216 142.052C102.216 139.574 103.602 137.95 105.856 137.95C108.264 137.95 109.58 139.784 109.426 142.402H103.686C103.686 144.096 104.61 144.95 105.982 144.95C107.088 144.95 107.816 144.404 108.096 143.564L109.37 143.858C108.992 145.244 107.76 146.14 105.954 146.14ZM103.686 141.38H107.956C107.942 139.994 107.116 139.084 105.828 139.084C104.624 139.084 103.742 139.882 103.686 141.38Z" fill="black"/>
<path d="M113.118 146.14C111.466 146.14 110.528 145.244 110.528 143.942C110.528 142.416 111.634 141.758 113.062 141.492L114.714 141.184C115.54 141.03 115.736 140.75 115.736 140.232C115.736 139.56 115.344 139.07 114.112 139.07C112.95 139.07 112.152 139.518 112.166 140.512L110.808 140.372C110.836 138.832 112.138 137.95 114.112 137.95C116.072 137.95 117.164 138.734 117.164 140.33V144.334C117.164 144.894 117.402 145.006 117.654 145.006C117.808 145.006 117.864 144.992 117.892 144.978H117.976V146C117.78 146.084 117.416 146.112 117.262 146.112C116.464 146.112 115.918 145.734 115.918 144.824C115.428 145.622 114.336 146.14 113.118 146.14ZM113.482 144.992C114.616 144.992 115.47 144.474 115.75 143.62V141.954C115.582 142.08 115.218 142.164 114.602 142.29L113.44 142.528C112.278 142.766 111.998 143.284 111.998 143.83C111.998 144.628 112.642 144.992 113.482 144.992Z" fill="black"/>
<path d="M121.26 146.098C120.21 146.098 119.65 145.636 119.65 144.768V139.21H118.6V138.09H119.65V135.976H121.05V138.09H122.324V139.21H121.05V144.18C121.05 144.754 121.19 144.894 121.708 144.894C121.988 144.894 122.17 144.88 122.324 144.838V145.986C121.904 146.07 121.554 146.098 121.26 146.098Z" fill="black"/>
<path d="M123.872 136.872V134.912H125.3V136.872H123.872ZM123.872 146V138.09H125.3V146H123.872Z" fill="black"/>
<path d="M129.452 146L126.414 138.09H127.954L129.34 141.912C129.76 143.046 129.984 143.69 130.32 144.726C130.6 143.788 130.936 142.808 131.258 141.926L132.644 138.09H134.128L131.118 146H129.452Z" fill="black"/>
<path d="M135.247 136.872V134.912H136.675V136.872H135.247ZM135.247 146V138.09H136.675V146H135.247Z" fill="black"/>
<path d="M140.646 146.098C139.596 146.098 139.036 145.636 139.036 144.768V139.21H137.986V138.09H139.036V135.976H140.436V138.09H141.71V139.21H140.436V144.18C140.436 144.754 140.576 144.894 141.094 144.894C141.374 144.894 141.556 144.88 141.71 144.838V145.986C141.29 146.07 140.94 146.098 140.646 146.098Z" fill="black"/>
<path d="M144.141 136.872V134.856H145.457V136.872H144.141ZM147.039 136.872V134.856H148.341V136.872H147.039ZM145.261 146.14C143.609 146.14 142.671 145.244 142.671 143.942C142.671 142.416 143.777 141.758 145.205 141.492L146.857 141.184C147.683 141.03 147.879 140.75 147.879 140.232C147.879 139.56 147.487 139.07 146.255 139.07C145.093 139.07 144.295 139.518 144.309 140.512L142.951 140.372C142.979 138.832 144.281 137.95 146.255 137.95C148.215 137.95 149.307 138.734 149.307 140.33V144.334C149.307 144.894 149.545 145.006 149.797 145.006C149.951 145.006 150.007 144.992 150.035 144.978H150.119V146C149.923 146.084 149.559 146.112 149.405 146.112C148.607 146.112 148.061 145.734 148.061 144.824C147.571 145.622 146.479 146.14 145.261 146.14ZM145.625 144.992C146.759 144.992 147.613 144.474 147.893 143.62V141.954C147.725 142.08 147.361 142.164 146.745 142.29L145.583 142.528C144.421 142.766 144.141 143.284 144.141 143.83C144.141 144.628 144.785 144.992 145.625 144.992Z" fill="black"/>
<path d="M153.402 146.098C152.352 146.098 151.792 145.636 151.792 144.768V139.21H150.742V138.09H151.792V135.976H153.192V138.09H154.466V139.21H153.192V144.18C153.192 144.754 153.332 144.894 153.85 144.894C154.13 144.894 154.312 144.88 154.466 144.838V145.986C154.046 146.07 153.696 146.098 153.402 146.098Z" fill="black"/>
<path d="M159.378 136.872V134.912H160.806V136.872H159.378ZM159.378 146V138.09H160.806V146H159.378Z" fill="black"/>
<path d="M163.029 146V138.09H164.345L164.429 139.28C165.101 138.37 165.927 137.95 167.005 137.95C168.587 137.95 169.721 138.846 169.721 140.708V146H168.293V140.848C168.293 139.868 167.733 139.238 166.599 139.238C165.437 139.238 164.471 140.008 164.471 141.296V146H163.029Z" fill="black"/>
<path d="M175.347 146V134.94H176.775V139.364C177.307 138.412 178.231 137.95 179.365 137.95C181.437 137.95 182.781 139.56 182.781 142.094C182.781 144.572 181.479 146.14 179.393 146.14C178.203 146.14 177.209 145.58 176.761 144.656L176.663 146H175.347ZM176.775 142.584C176.775 143.984 177.713 144.908 179.085 144.908C180.499 144.908 181.311 143.886 181.311 142.094C181.311 140.232 180.513 139.182 179.071 139.182C177.671 139.182 176.775 140.148 176.775 141.66V142.584Z" fill="black"/>
<path d="M187.903 146.14C185.677 146.14 184.165 144.642 184.165 142.052C184.165 139.574 185.551 137.95 187.805 137.95C190.213 137.95 191.529 139.784 191.375 142.402H185.635C185.635 144.096 186.559 144.95 187.931 144.95C189.037 144.95 189.765 144.404 190.045 143.564L191.319 143.858C190.941 145.244 189.709 146.14 187.903 146.14ZM185.635 141.38H189.905C189.891 139.994 189.065 139.084 187.777 139.084C186.573 139.084 185.691 139.882 185.635 141.38Z" fill="black"/>
<path d="M192.71 142.094C192.71 139.56 194.054 137.95 196.126 137.95C197.316 137.95 198.212 138.454 198.716 139.364V134.94H200.144V146H198.814L198.716 144.656C198.268 145.58 197.288 146.14 196.084 146.14C193.998 146.14 192.71 144.572 192.71 142.094ZM194.18 142.094C194.18 143.9 194.978 144.908 196.392 144.908C197.792 144.908 198.716 143.956 198.716 142.5V141.66C198.716 140.148 197.82 139.182 196.406 139.182C194.978 139.182 194.18 140.232 194.18 142.094Z" fill="black"/>
<path d="M205.581 146.14C203.355 146.14 201.843 144.642 201.843 142.052C201.843 139.574 203.229 137.95 205.483 137.95C207.891 137.95 209.207 139.784 209.053 142.402H203.313C203.313 144.096 204.237 144.95 205.609 144.95C206.715 144.95 207.443 144.404 207.723 143.564L208.997 143.858C208.619 145.244 207.387 146.14 205.581 146.14ZM203.313 141.38H207.583C207.569 139.994 206.743 139.084 205.455 139.084C204.251 139.084 203.369 139.882 203.313 141.38Z" fill="black"/>
<path d="M217.267 138.09V146H215.937L215.867 144.81C215.377 145.636 214.453 146.14 213.445 146.14C211.639 146.14 210.659 145.076 210.659 143.452V138.09H212.101V143.326C212.101 144.306 212.745 144.852 213.739 144.852C214.985 144.852 215.825 144.054 215.825 142.878V138.09H217.267Z" fill="black"/>
<path d="M221.256 146.098C220.206 146.098 219.646 145.636 219.646 144.768V139.21H218.596V138.09H219.646V135.976H221.046V138.09H222.32V139.21H221.046V144.18C221.046 144.754 221.186 144.894 221.704 144.894C221.984 144.894 222.166 144.88 222.32 144.838V145.986C221.9 146.07 221.55 146.098 221.256 146.098Z" fill="black"/>
<path d="M230.392 138.09V146H229.062L228.992 144.81C228.502 145.636 227.578 146.14 226.57 146.14C224.764 146.14 223.784 145.076 223.784 143.452V138.09H225.226V143.326C225.226 144.306 225.87 144.852 226.864 144.852C228.11 144.852 228.95 144.054 228.95 142.878V138.09H230.392Z" fill="black"/>
<path d="M232.618 146V138.09H233.934L234.018 139.28C234.69 138.37 235.516 137.95 236.594 137.95C238.176 137.95 239.31 138.846 239.31 140.708V146H237.882V140.848C237.882 139.868 237.322 139.238 236.188 139.238C235.026 139.238 234.06 140.008 234.06 141.296V146H232.618Z" fill="black"/>
<path d="M244.429 148.478C242.497 148.478 241.335 147.708 241.111 146.42L242.469 146.21C242.665 147.036 243.407 147.372 244.499 147.372C245.829 147.372 246.711 146.868 246.711 145.566V143.984C246.221 144.852 245.353 145.356 244.247 145.356C242.245 145.356 240.999 143.788 240.999 141.618C240.999 139.476 242.217 137.95 244.177 137.95C245.339 137.95 246.291 138.496 246.711 139.392L246.795 138.09H248.125V145.538C248.125 147.302 246.935 148.478 244.429 148.478ZM244.555 144.166C245.843 144.166 246.711 143.186 246.711 141.884V141.352C246.711 140.064 245.815 139.14 244.513 139.14C243.197 139.14 242.469 140.12 242.469 141.632C242.469 143.13 243.183 144.166 244.555 144.166Z" fill="black"/>
<path d="M253.108 146.14C251.092 146.14 249.93 145.104 249.79 143.536L251.19 143.382C251.19 144.362 251.946 145.02 253.15 145.02C254.158 145.02 254.858 144.684 254.858 143.858C254.858 142.822 253.78 142.766 252.436 142.472C250.84 142.122 250.126 141.45 250.126 140.246C250.126 138.888 251.316 137.95 253.066 137.95C254.97 137.95 256.076 138.818 256.216 140.4L254.844 140.582C254.844 139.672 254.27 139.056 253.066 139.056C252.114 139.056 251.582 139.504 251.582 140.134C251.582 140.946 252.268 141.17 253.682 141.45C255.096 141.73 256.3 142.206 256.342 143.788C256.384 145.44 254.9 146.14 253.108 146.14Z" fill="black"/>
<path d="M259.923 146L256.885 138.09H258.425L259.811 141.912C260.231 143.046 260.455 143.69 260.791 144.726C261.071 143.788 261.407 142.808 261.729 141.926L263.115 138.09H264.599L261.589 146H259.923Z" fill="black"/>
<path d="M265.144 142.066C265.144 139.574 266.628 137.95 268.91 137.95C271.178 137.95 272.648 139.574 272.648 142.052C272.648 144.53 271.178 146.14 268.91 146.14C266.614 146.14 265.144 144.516 265.144 142.066ZM266.586 142.052C266.586 143.858 267.44 144.908 268.896 144.908C270.352 144.908 271.206 143.844 271.206 142.038C271.206 140.218 270.352 139.182 268.91 139.182C267.44 139.182 266.586 140.26 266.586 142.052Z" fill="black"/>
<path d="M274.345 146V134.94H275.773V146H274.345Z" fill="black"/>
<path d="M277.995 146V134.94H279.423V146H277.995Z" fill="black"/>
<path d="M284.851 146.14C282.625 146.14 281.113 144.642 281.113 142.052C281.113 139.574 282.499 137.95 284.753 137.95C287.161 137.95 288.477 139.784 288.323 142.402H282.583C282.583 144.096 283.507 144.95 284.879 144.95C285.985 144.95 286.713 144.404 286.993 143.564L288.267 143.858C287.889 145.244 286.657 146.14 284.851 146.14ZM282.583 141.38H286.853C286.839 139.994 286.013 139.084 284.725 139.084C283.521 139.084 282.639 139.882 282.583 141.38Z" fill="black"/>
<path d="M292.743 146.14C290.727 146.14 289.565 145.104 289.425 143.536L290.825 143.382C290.825 144.362 291.581 145.02 292.785 145.02C293.793 145.02 294.493 144.684 294.493 143.858C294.493 142.822 293.415 142.766 292.071 142.472C290.475 142.122 289.761 141.45 289.761 140.246C289.761 138.888 290.951 137.95 292.701 137.95C294.605 137.95 295.711 138.818 295.851 140.4L294.479 140.582C294.479 139.672 293.905 139.056 292.701 139.056C291.749 139.056 291.217 139.504 291.217 140.134C291.217 140.946 291.903 141.17 293.317 141.45C294.731 141.73 295.935 142.206 295.977 143.788C296.019 145.44 294.535 146.14 292.743 146.14Z" fill="black"/>
<path d="M97.6891 165V154.794H101.861C104.759 154.794 106.509 156.796 106.509 159.904C106.509 162.942 104.815 165 101.861 165H97.6891ZM99.1451 163.684H101.819C103.821 163.684 104.969 162.214 104.969 159.89C104.969 157.538 103.793 156.11 101.819 156.11H99.1451V163.684Z" fill="black"/>
<path d="M111.594 165.14C109.368 165.14 107.856 163.642 107.856 161.052C107.856 158.574 109.242 156.95 111.496 156.95C113.904 156.95 115.22 158.784 115.066 161.402H109.326C109.326 163.096 110.25 163.95 111.622 163.95C112.728 163.95 113.456 163.404 113.736 162.564L115.01 162.858C114.632 164.244 113.4 165.14 111.594 165.14ZM109.326 160.38H113.596C113.582 158.994 112.756 158.084 111.468 158.084C110.264 158.084 109.382 158.882 109.326 160.38Z" fill="black"/>
<path d="M119.486 165.14C117.47 165.14 116.308 164.104 116.168 162.536L117.568 162.382C117.568 163.362 118.324 164.02 119.528 164.02C120.536 164.02 121.236 163.684 121.236 162.858C121.236 161.822 120.158 161.766 118.814 161.472C117.218 161.122 116.504 160.45 116.504 159.246C116.504 157.888 117.694 156.95 119.444 156.95C121.348 156.95 122.454 157.818 122.594 159.4L121.222 159.582C121.222 158.672 120.648 158.056 119.444 158.056C118.492 158.056 117.96 158.504 117.96 159.134C117.96 159.946 118.646 160.17 120.06 160.45C121.474 160.73 122.678 161.206 122.72 162.788C122.762 164.44 121.278 165.14 119.486 165.14Z" fill="black"/>
<path d="M124.412 155.872V153.912H125.84V155.872H124.412ZM124.412 165V157.09H125.84V165H124.412Z" fill="black"/>
<path d="M130.96 167.478C129.028 167.478 127.866 166.708 127.642 165.42L129 165.21C129.196 166.036 129.938 166.372 131.03 166.372C132.36 166.372 133.242 165.868 133.242 164.566V162.984C132.752 163.852 131.884 164.356 130.778 164.356C128.776 164.356 127.53 162.788 127.53 160.618C127.53 158.476 128.748 156.95 130.708 156.95C131.87 156.95 132.822 157.496 133.242 158.392L133.326 157.09H134.656V164.538C134.656 166.302 133.466 167.478 130.96 167.478ZM131.086 163.166C132.374 163.166 133.242 162.186 133.242 160.884V160.352C133.242 159.064 132.346 158.14 131.044 158.14C129.728 158.14 129 159.12 129 160.632C129 162.13 129.714 163.166 131.086 163.166Z" fill="black"/>
<path d="M136.854 165V157.09H138.17L138.254 158.28C138.926 157.37 139.752 156.95 140.83 156.95C142.412 156.95 143.546 157.846 143.546 159.708V165H142.118V159.848C142.118 158.868 141.558 158.238 140.424 158.238C139.262 158.238 138.296 159.008 138.296 160.296V165H136.854Z" fill="black"/>
<path d="M150.292 163.81H154.94V165H148.514V163.936L152.938 158.266H148.682V157.09H154.758V158.168L150.292 163.81Z" fill="black"/>
<path d="M162.997 157.09V165H161.667L161.597 163.81C161.107 164.636 160.183 165.14 159.175 165.14C157.369 165.14 156.389 164.076 156.389 162.452V157.09H157.831V162.326C157.831 163.306 158.475 163.852 159.469 163.852C160.715 163.852 161.555 163.054 161.555 161.878V157.09H162.997Z" fill="black"/>
<path d="M170.529 165L167.491 157.09H169.031L170.417 160.912C170.837 162.046 171.061 162.69 171.397 163.726C171.677 162.788 172.013 161.808 172.335 160.926L173.721 157.09H175.205L172.195 165H170.529Z" fill="black"/>
<path d="M179.488 165.14C177.262 165.14 175.75 163.642 175.75 161.052C175.75 158.574 177.136 156.95 179.39 156.95C181.798 156.95 183.114 158.784 182.96 161.402H177.22C177.22 163.096 178.144 163.95 179.516 163.95C180.622 163.95 181.35 163.404 181.63 162.564L182.904 162.858C182.526 164.244 181.294 165.14 179.488 165.14ZM177.22 160.38H181.49C181.476 158.994 180.65 158.084 179.362 158.084C178.158 158.084 177.276 158.882 177.22 160.38Z" fill="black"/>
<path d="M184.651 165V157.09H185.939L186.023 158.252C186.429 157.454 187.087 157.006 187.927 157.006C188.207 157.006 188.431 157.034 188.571 157.09V158.448H188.473C188.319 158.392 188.109 158.364 187.927 158.364C186.863 158.364 186.191 159.064 186.093 160.17V165H184.651Z" fill="black"/>
<path d="M191.799 165L189.643 157.09H191.141L192.737 163.558L194.263 157.09H195.873L197.427 163.516L199.009 157.09H200.451L198.351 165H196.573L195.075 158.812L193.633 165H191.799Z" fill="black"/>
<path d="M203.688 165.14C202.036 165.14 201.098 164.244 201.098 162.942C201.098 161.416 202.204 160.758 203.632 160.492L205.284 160.184C206.11 160.03 206.306 159.75 206.306 159.232C206.306 158.56 205.914 158.07 204.682 158.07C203.52 158.07 202.722 158.518 202.736 159.512L201.378 159.372C201.406 157.832 202.708 156.95 204.682 156.95C206.642 156.95 207.734 157.734 207.734 159.33V163.334C207.734 163.894 207.972 164.006 208.224 164.006C208.378 164.006 208.434 163.992 208.462 163.978H208.546V165C208.35 165.084 207.986 165.112 207.832 165.112C207.034 165.112 206.488 164.734 206.488 163.824C205.998 164.622 204.906 165.14 203.688 165.14ZM204.052 163.992C205.186 163.992 206.04 163.474 206.32 162.62V160.954C206.152 161.08 205.788 161.164 205.172 161.29L204.01 161.528C202.848 161.766 202.568 162.284 202.568 162.83C202.568 163.628 203.212 163.992 204.052 163.992Z" fill="black"/>
<path d="M210.121 165V157.09H211.437L211.521 158.28C212.193 157.37 213.019 156.95 214.097 156.95C215.679 156.95 216.813 157.846 216.813 159.708V165H215.385V159.848C215.385 158.868 214.825 158.238 213.691 158.238C212.529 158.238 211.563 159.008 211.563 160.296V165H210.121Z" fill="black"/>
<path d="M218.502 161.094C218.502 158.56 219.846 156.95 221.918 156.95C223.108 156.95 224.004 157.454 224.508 158.364V153.94H225.936V165H224.606L224.508 163.656C224.06 164.58 223.08 165.14 221.876 165.14C219.79 165.14 218.502 163.572 218.502 161.094ZM219.972 161.094C219.972 162.9 220.77 163.908 222.184 163.908C223.584 163.908 224.508 162.956 224.508 161.5V160.66C224.508 159.148 223.612 158.182 222.198 158.182C220.77 158.182 219.972 159.232 219.972 161.094Z" fill="black"/>
<path d="M231.373 165.14C229.147 165.14 227.635 163.642 227.635 161.052C227.635 158.574 229.021 156.95 231.275 156.95C233.683 156.95 234.999 158.784 234.845 161.402H229.105C229.105 163.096 230.029 163.95 231.401 163.95C232.507 163.95 233.235 163.404 233.515 162.564L234.789 162.858C234.411 164.244 233.179 165.14 231.373 165.14ZM229.105 160.38H233.375C233.361 158.994 232.535 158.084 231.247 158.084C230.043 158.084 229.161 158.882 229.105 160.38Z" fill="black"/>
<path d="M236.521 165V153.94H237.949V165H236.521Z" fill="black"/>
<path d="M240.172 165V157.09H241.488L241.572 158.28C242.244 157.37 243.07 156.95 244.148 156.95C245.73 156.95 246.864 157.846 246.864 159.708V165H245.436V159.848C245.436 158.868 244.876 158.238 243.742 158.238C242.58 158.238 241.614 159.008 241.614 160.296V165H240.172Z" fill="black"/>
<path d="M249.3 161.948L249.02 157.286V154.794H250.462V157.286L250.182 161.948H249.3ZM248.992 165V163.404H250.476V165H248.992Z" fill="black"/>
</svg>
