<?xml version="1.0" encoding="UTF-8"?>
<svg id="Ebene_1" data-name="Ebene 1" xmlns="http://www.w3.org/2000/svg" xmlns:xlink="http://www.w3.org/1999/xlink" viewBox="0 0 52 52">
  <defs>
    <style>
      .cls-1 {
        fill: #fff;
      }

      .cls-2 {
        fill: none;
      }

      .cls-3 {
        clip-path: url(#clippath);
      }
    </style>
    <clipPath id="clippath">
      <path class="cls-2" d="M15.8,8.99h20.41c3.76,0,6.8,3.08,6.8,6.89v20.24c0,3.8-3.05,6.89-6.8,6.89H15.8c-3.76,0-6.8-3.08-6.8-6.89V15.88c0-3.8,3.05-6.89,6.8-6.89Z"/>
    </clipPath>
  </defs>
  <g class="cls-3">
    <path class="cls-1" d="M26,30.78h-5.44l-1.11,3.53c0,.17-.17.26-.26.17h-2.81c-.17,0-.17-.09-.17-.26l4.76-13.78c0-.17.09-.34.17-.52,0-.34.09-.6.09-.95,0,0,0-.17.09-.17h3.83c.09,0,.17,0,.17.09l5.36,15.33c0,.17,0,.26-.17.26h-3.06c-.09,0-.17,0-.26-.17,0,0-1.19-3.53-1.19-3.53ZM21.41,27.77h3.74c-.09-.34-.17-.69-.34-1.03-.17-.43-.26-.86-.43-1.29s-.26-.95-.43-1.38-.26-.86-.43-1.29c-.09-.43-.26-.78-.34-1.12h0c-.17.6-.26,1.29-.51,1.89-.26.69-.43,1.46-.68,2.24-.17.78-.43,1.46-.68,2.07l.09-.09ZM33.91,21.31c-.51,0-.94-.17-1.28-.52s-.51-.86-.51-1.38.17-.95.51-1.29c.34-.34.85-.52,1.28-.52s1.02.17,1.36.52c.34.34.51.86.51,1.29,0,.52-.17,1.03-.51,1.38-.34.34-.85.52-1.36.52ZM32.29,34.31v-11.45q0-.17.17-.17h2.89q.17,0,.17.17v11.45c0,.17,0,.26-.17.26h-2.89c-.17,0-.26-.09-.26-.26h.09Z"/>
  </g>
  <path class="cls-1" d="M36.2,43.01H15.8c-3.74,0-6.8-3.1-6.8-6.89V15.88c0-3.79,3.06-6.89,6.8-6.89h20.41c3.74,0,6.8,3.1,6.8,6.89v20.24c0,3.79-3.06,6.89-6.8,6.89ZM15.8,11.58c-2.38,0-4.25,1.89-4.25,4.31v20.24c0,2.41,1.87,4.31,4.25,4.31h20.41c2.38,0,4.25-1.89,4.25-4.31V15.88c0-2.41-1.87-4.31-4.25-4.31H15.8Z"/>
</svg>