<?xml version="1.0" encoding="UTF-8"?>
<svg id="Ebene_1" data-name="Ebene 1" xmlns="http://www.w3.org/2000/svg" xmlns:xlink="http://www.w3.org/1999/xlink" viewBox="0 0 52 52">
  <defs>
    <style>
      .cls-1 {
        fill: #fff;
      }

      .cls-2 {
        fill: none;
      }

      .cls-3 {
        clip-path: url(#clippath-1);
      }
    </style>
    <clipPath id="clippath-1">
      <path class="cls-2" d="M15.8,8.99h20.41c3.76,0,6.8,3.08,6.8,6.89v20.24c0,3.8-3.05,6.89-6.8,6.89H15.8c-3.76,0-6.8-3.08-6.8-6.89V15.88c0-3.8,3.05-6.89,6.8-6.89Z"/>
    </clipPath>
  </defs>
  <path class="cls-1" d="M36.2,43.01H15.8c-3.74,0-6.8-3.1-6.8-6.89V15.88c0-3.79,3.06-6.89,6.8-6.89h20.41c3.74,0,6.8,3.1,6.8,6.89v20.24c0,3.79-3.06,6.89-6.8,6.89ZM15.8,11.58c-2.38,0-4.25,1.89-4.25,4.31v20.24c0,2.41,1.87,4.31,4.25,4.31h20.41c2.38,0,4.25-1.89,4.25-4.31V15.88c0-2.41-1.87-4.31-4.25-4.31H15.8Z"/>
  <g class="cls-3">
    <path class="cls-1" d="M21.07,19.07v14.81c0,.17,0,.26-.17.26h-2.81q-.17,0-.17-.26v-14.81c0-.09,0-.17.17-.17h2.72s.17,0,.17.17h.09ZM29.23,34.22c-1.02,0-2.13-.17-3.06-.6-.85-.43-1.62-1.12-2.13-1.98s-.77-1.98-.77-3.27c0-1.03.26-2.07.77-3.01s1.28-1.72,2.21-2.24c1.02-.52,2.21-.86,3.57-.86s.17,0,.34,0h.43v-4.56c0-.09,0-.17.17-.17h2.89s.17,0,.17.09v15.41c0,.09,0,.17-.17.26-.77.34-1.53.52-2.3.69-.68.09-1.45.17-2.21.17l.09.09ZM30.68,31.3v-6.29h-.85c-.51,0-1.11.09-1.62.34s-.85.6-1.19,1.03-.51,1.03-.51,1.81c0,.52,0,1.03.26,1.46.17.34.34.69.68,1.03.26.26.6.43.94.6.43.09.77.17,1.19.17h1.11v-.17Z"/>
  </g>
</svg>