<svg version="1.2" xmlns="http://www.w3.org/2000/svg" viewBox="0 0 256 260" width="100" height="102">
	<title>LinkedIn</title>
	<style>
		.s0 { fill: #000000 } 
	</style>
	<g>
		<path class="s0" d="m77.8 216.2v-115.2h-38.3v115.2zm-19.1-130.9c13.3 0 21.6-8.9 21.6-20-0.2-11.3-8.3-19.9-21.4-19.9-13.1 0-21.7 8.6-21.7 19.9 0 11.1 8.3 20 21.2 20 0 0 0.2 0 0.3 0zm40.3 130.9h38.3v-64.3c0-3.5 0.3-6.9 1.3-9.4 2.7-6.8 9-14 19.6-14 13.9 0 19.4 10.6 19.4 26.1v61.6h38.3v-66c0-35.4-18.9-51.9-44.1-51.9-20.6 0-29.7 11.5-34.7 19.4h0.2v-16.7h-38.3c0.5 10.8 0 115.2 0 115.2z"/>
	</g>
</svg>