<svg version="1.2" xmlns="http://www.w3.org/2000/svg" viewBox="0 0 256 256" width="100" height="100">
	<title>MySQL</title>
	<style>
		.s0 { fill: #c6c6c7 } 
	</style>
	<path class="s0" d="m235.6 196.2c-13.9-0.3-24.7 1.1-33.7 4.9-2.6 1-6.8 1-7.1 4.3 1.4 1.4 1.5 3.7 2.7 5.6 2.1 3.5 5.8 8.2 9.1 10.6 3.6 2.8 7.3 5.6 11.1 8 6.8 4.2 14.5 6.6 21.1 10.8 3.8 2.4 7.6 5.6 11.5 8.2 1.9 1.4 3.1 3.6 5.5 4.5v-0.5c-1.2-1.6-1.5-3.8-2.8-5.6-1.7-1.7-3.4-3.3-5.2-5-5-6.8-11.3-12.7-18.1-17.6-5.5-3.8-17.7-9-20-15.5 0 0-0.1-0.2-0.3-0.3 3.8-0.4 8.3-1.8 12-2.8 5.9-1.6 11.3-1.2 17.4-2.8 2.8-0.7 5.5-1.6 8.3-2.4v-1.6c-3.1-3.1-5.4-7.3-8.7-10.3-8.8-7.6-18.6-15.1-28.7-21.4-5.4-3.4-12.3-5.7-18.1-8.7-2.1-1-5.5-1.5-6.8-3.3-3.1-3.8-4.8-8.8-7.1-13.4-5-9.5-9.9-20.2-14.3-30.2-3.1-6.8-5-13.6-8.8-19.9-17.9-29.6-37.4-47.5-67.4-65-6.4-3.7-14-5.3-22.2-7.2-4.4-0.2-8.7-0.5-13.1-0.7-2.8-1.2-5.5-4.5-8-6.1-9.9-6.2-35.5-19.8-42.8-1.9-4.7 11.3 7 22.5 11 28.2 2.9 4 6.8 8.5 8.9 13.1 1.2 2.9 1.5 6 2.7 9.2 2.8 7.6 5.4 16.2 9.1 23.3 1.9 3.6 4 7.5 6.4 10.8 1.4 1.9 3.9 2.8 4.4 5.9-2.5 3.5-2.6 8.7-4 13-6.3 19.7-3.9 44.1 5 58.5 2.8 4.3 9.4 13.9 18.3 10.3 7.8-3.2 6.1-13.1 8.3-21.8 0.6-2.1 0.2-3.5 1.3-4.9 0 0.2 0 0.4 0 0.4 2.4 4.9 4.8 9.6 7.1 14.4 5.4 8.6 14.8 17.4 22.6 23.3 4.2 3.2 7.5 8.6 12.7 10.5v-0.5h-0.3c-1.1-1.6-2.7-2.3-4-3.5-3.2-3.1-6.7-7-9.1-10.5-7.3-9.7-13.7-20.5-19.5-31.6-2.8-5.4-5.2-11.3-7.5-16.7-1-2.1-1-5.2-2.7-6.3-2.7 3.8-6.5 7.1-8.4 11.8-3.3 7.5-3.6 16.7-4.9 26.3-0.7 0.2-0.3 0-0.7 0.4-5.5-1.4-7.4-7.2-9.5-12-5.2-12.4-6.1-32.2-1.6-46.5 1.2-3.6 6.4-15.1 4.4-18.6-1.1-3.3-4.6-5.2-6.5-7.8-2.2-3.3-4.7-7.5-6.2-11.2-4.2-9.7-6.3-20.5-10.8-30.2-2.1-4.6-5.8-9.3-8.7-13.4-3.3-4.7-7-8-9.6-13.6-0.9-1.9-2.1-5.1-0.7-7.1 0.4-1.4 1-2 2.4-2.3 2.3-1.9 8.7 0.5 11 1.6 6.4 2.6 11.8 5 17.2 8.7 2.5 1.7 5.1 5 8.2 5.9h3.7c5.5 1.2 11.8 0.3 17 1.9 9.2 2.9 17.6 7.3 25.1 12 22.8 14.4 41.5 35 54.2 59.5 2.1 4 3 7.6 4.9 11.8 3.7 8.5 8.2 17.2 11.8 25.6 3.7 8.2 7.2 16.5 12.4 23.3 2.6 3.7 13 5.6 17.7 7.5 3.5 1.6 8.9 3 12 4.9 6 3.6 11.9 7.8 17.4 11.8 2.8 2.1 11.5 6.4 12 9.9z"/>
	<path class="s0" d="m58.2 45c-3 0-5.1 0.4-7.1 0.9 0 0 0 0.2 0 0.3h0.3c1.4 2.8 3.8 4.7 5.6 7.2 1.4 2.8 2.6 5.5 4 8.3 0.1-0.1 0.3-0.3 0.3-0.3 2.5-1.8 3.7-4.5 3.7-8.7-1.1-1.2-1.2-2.5-2.1-3.7-1.1-1.7-3.3-2.6-4.7-4z"/>
</svg>