<?xml version="1.0" encoding="UTF-8"?>
<svg id="Ebene_1" data-name="Ebene 1" xmlns="http://www.w3.org/2000/svg" viewBox="0 0 52 52">
  <defs>
    <style>
      .cls-1 {
        fill: #fff;
      }
    </style>
  </defs>
  <path class="cls-1" d="M36.2,43.01H15.8c-3.74,0-6.8-3.1-6.8-6.89V15.88c0-3.79,3.06-6.89,6.8-6.89h20.41c3.74,0,6.8,3.1,6.8,6.89v20.24c0,3.79-3.06,6.89-6.8,6.89ZM15.8,11.58c-2.38,0-4.25,1.89-4.25,4.31v20.24c0,2.41,1.87,4.31,4.25,4.31h20.41c2.38,0,4.25-1.89,4.25-4.31V15.88c0-2.41-1.87-4.31-4.25-4.31H15.8Z"/>
  <path class="cls-1" d="M15.75,33.41v-14.98c0-.09,0-.17.17-.17h4.34c1.19,0,2.13.17,2.89.43.68.26,1.36.69,1.87,1.21.43.43.85,1.03,1.02,1.64.17.6.34,1.21.34,1.89,0,1.29-.26,2.24-.85,3.1-.6.78-1.36,1.46-2.3,1.81s-2.04.52-3.23.52-.6,0-.68,0h-.6v4.65c0,.09,0,.17-.17.17h-2.72c-.09,0-.17,0-.17-.17l.09-.09ZM18.81,21.09v4.91h1.36c.51,0,1.11-.09,1.62-.26.43-.17.85-.43,1.19-.78s.43-.86.43-1.46c0-.43-.09-.86-.34-1.29-.26-.34-.6-.69-1.02-.86-.51-.26-1.11-.34-1.7-.26h-1.53ZM35.31,25.05c-.43-.26-.85-.43-1.36-.52s-1.02-.17-1.62-.17c-.26,0-.6,0-.85.09-.17,0-.34.17-.43.26,0,.09-.09.26-.09.43s0,.26.17.34c.09.17.26.26.51.43l1.02.52c.77.26,1.53.6,2.21,1.03.43.34.85.69,1.11,1.21.26.43.34.95.34,1.46,0,.69-.17,1.38-.6,1.89-.43.6-.94,1.03-1.62,1.29-.68.34-1.53.43-2.55.43s-1.28,0-1.96-.17c-.51-.09-1.02-.26-1.45-.43-.09,0-.17-.17-.17-.26v-2.67h.09c.51.34,1.11.6,1.79.69.51.17,1.11.26,1.7.26s.94,0,1.19-.17c.26-.09.43-.34.43-.6s-.09-.43-.34-.6c-.26-.17-.68-.43-1.36-.69-.77-.26-1.36-.6-2.04-1.03-.43-.34-.77-.78-1.11-1.21-.26-.43-.34-.95-.34-1.46,0-.6.17-1.21.51-1.72.34-.6.85-1.03,1.53-1.38.68-.34,1.53-.52,2.55-.52s1.19,0,1.79.17c.43,0,.85.17,1.19.34,0,0,.09,0,.17.17v2.76h-.26l-.17-.17Z"/>
</svg>