<svg version="1.2" xmlns="http://www.w3.org/2000/svg" viewBox="0 0 40 40" width="100" height="100">
	<title>Python</title>
	<style>
		.s0 { fill: #c6c6c7 } 
	</style>
	<g>
		<path fill-rule="evenodd" class="s0" d="m27.9 7.5v8.6c-0.3 1.9-1.9 3.4-3.8 3.4q-0.2 0-0.4 0h-7.4q-0.1 0-0.2 0c-2.8 0-5.1 2.3-5.1 5.1v3.4h-3.2c-2.1 0-3.8-1.7-3.8-3.9q0-0.2 0-0.3v-7.9c0-2.1 1.7-3.9 3.9-3.9q0.1 0 0.2 0h11.9v-1h-8v-3.1c0-2.2 1.8-3.9 3.9-3.9h8.5c1.9 0.2 3.3 1.7 3.5 3.5zm-10.9 0c0-0.8-0.7-1.5-1.5-1.5-0.8 0-1.5 0.7-1.5 1.5 0 0.8 0.7 1.5 1.5 1.5 0.8 0 1.5-0.7 1.5-1.5z"/>
		<path fill-rule="evenodd" class="s0" d="m12.1 32.5v-8.6c0.3-1.9 1.9-3.4 3.8-3.4q0.2 0 0.4 0h7.4q0.1 0 0.2 0c2.8 0 5.1-2.3 5.1-5.1v-3.4h3.2c2.1 0 3.8 1.7 3.8 3.9q0 0.2 0 0.3v7.9c0 2.1-1.7 3.9-3.9 3.9q-0.1 0-0.2 0h-11.9v1h8v3.1c0 2.2-1.8 3.9-3.9 3.9h-8.5c-1.9-0.2-3.3-1.7-3.5-3.5zm10.9 0c0 0.8 0.7 1.5 1.5 1.5 0.8 0 1.5-0.7 1.5-1.5 0-0.8-0.7-1.5-1.5-1.5-0.8 0-1.5 0.7-1.5 1.5z"/>
	</g>
</svg>