<svg version="1.2" xmlns="http://www.w3.org/2000/svg" viewBox="0 0 211 211" width="100" height="100">
	<title>Unreal</title>
	<style>
		.s0 { fill: #c6c6c7 } 
	</style>
	<path class="s0" d="m105.2 0c-58.1 0-105.2 47.1-105.2 105.2 0 58.1 47.1 105.2 105.2 105.2 58.1 0 105.2-47.1 105.2-105.2 0-58.1-47-105.2-105.2-105.2zm0 5c55.3 0 100.2 45 100.2 100.2 0 55.2-45 100.2-100.2 100.2-55.2 0-100.2-44.9-100.2-100.2 0-55.3 45-100.2 100.2-100.2z"/>
	<path class="s0" d="m97.9 42.2c0 0-23.7 6.7-45 29.3-21.3 22.6-24 38.7-24 50.7 4.7-8 33.7-52.1 40.5-31.1v50.2c0 0-0.4 6.8-10.8 4.1 3.1 5.8 19.1 20.1 48 23 6.6-6.6 15.2-16.1 15.2-16.1l14.4 12.2c0 0 25.9-16.8 36.1-41.2-9.5 6.2-21 20.6-27 10.5v-61.1c0 0 15.4-23.1 17.8-24.2-6.1 1.1-27.6 8.2-38.9 22.8-3.2-3.5-12.1-3.6-12.1-3.6 0 0 7 5.8 7.1 11.1 0.1 5.3 0 49.5 0 54.6-4.8 4.9-9.9 7.5-13.2 7.5-7.7 0-9.9-2.7-12-5.4v-64.2c0 0-3.8 3.2-6.8-2-3-5.2-3.1-15.3 10.7-27.1z"/>
</svg>